G04 #@! TF.GenerationSoftware,KiCad,Pcbnew,7.0.7*
G04 #@! TF.CreationDate,2023-11-12T13:18:28+03:00*
G04 #@! TF.ProjectId,floppy-adapter-4,666c6f70-7079-42d6-9164-61707465722d,rev?*
G04 #@! TF.SameCoordinates,Original*
G04 #@! TF.FileFunction,Legend,Top*
G04 #@! TF.FilePolarity,Positive*
%FSLAX46Y46*%
G04 Gerber Fmt 4.6, Leading zero omitted, Abs format (unit mm)*
G04 Created by KiCad (PCBNEW 7.0.7) date 2023-11-12 13:18:28*
%MOMM*%
%LPD*%
G01*
G04 APERTURE LIST*
%ADD10C,0.150000*%
G04 APERTURE END LIST*
D10*
X158871356Y-84933164D02*
X159335642Y-84933164D01*
X159335642Y-84933164D02*
X159085642Y-85218878D01*
X159085642Y-85218878D02*
X159192785Y-85218878D01*
X159192785Y-85218878D02*
X159264214Y-85254592D01*
X159264214Y-85254592D02*
X159299928Y-85290307D01*
X159299928Y-85290307D02*
X159335642Y-85361735D01*
X159335642Y-85361735D02*
X159335642Y-85540307D01*
X159335642Y-85540307D02*
X159299928Y-85611735D01*
X159299928Y-85611735D02*
X159264214Y-85647450D01*
X159264214Y-85647450D02*
X159192785Y-85683164D01*
X159192785Y-85683164D02*
X158978499Y-85683164D01*
X158978499Y-85683164D02*
X158907071Y-85647450D01*
X158907071Y-85647450D02*
X158871356Y-85611735D01*
X159978500Y-85183164D02*
X159978500Y-85683164D01*
X159799928Y-84897450D02*
X159621357Y-85433164D01*
X159621357Y-85433164D02*
X160085642Y-85433164D01*
X172489260Y-86576819D02*
X172013069Y-86576819D01*
X172013069Y-86576819D02*
X171905927Y-87053009D01*
X171905927Y-87053009D02*
X171959498Y-87005390D01*
X171959498Y-87005390D02*
X172060688Y-86957771D01*
X172060688Y-86957771D02*
X172298784Y-86957771D01*
X172298784Y-86957771D02*
X172388069Y-87005390D01*
X172388069Y-87005390D02*
X172429736Y-87053009D01*
X172429736Y-87053009D02*
X172465450Y-87148247D01*
X172465450Y-87148247D02*
X172435688Y-87386342D01*
X172435688Y-87386342D02*
X172376165Y-87481580D01*
X172376165Y-87481580D02*
X172322593Y-87529200D01*
X172322593Y-87529200D02*
X172221403Y-87576819D01*
X172221403Y-87576819D02*
X171983307Y-87576819D01*
X171983307Y-87576819D02*
X171894022Y-87529200D01*
X171894022Y-87529200D02*
X171852355Y-87481580D01*
X172852355Y-87481580D02*
X172894022Y-87529200D01*
X172894022Y-87529200D02*
X172840450Y-87576819D01*
X172840450Y-87576819D02*
X172798784Y-87529200D01*
X172798784Y-87529200D02*
X172852355Y-87481580D01*
X172852355Y-87481580D02*
X172840450Y-87576819D01*
X173382117Y-86672057D02*
X173435688Y-86624438D01*
X173435688Y-86624438D02*
X173536878Y-86576819D01*
X173536878Y-86576819D02*
X173774974Y-86576819D01*
X173774974Y-86576819D02*
X173864259Y-86624438D01*
X173864259Y-86624438D02*
X173905926Y-86672057D01*
X173905926Y-86672057D02*
X173941640Y-86767295D01*
X173941640Y-86767295D02*
X173929736Y-86862533D01*
X173929736Y-86862533D02*
X173864259Y-87005390D01*
X173864259Y-87005390D02*
X173221402Y-87576819D01*
X173221402Y-87576819D02*
X173840450Y-87576819D01*
X174870212Y-86576819D02*
X174394021Y-86576819D01*
X174394021Y-86576819D02*
X174286879Y-87053009D01*
X174286879Y-87053009D02*
X174340450Y-87005390D01*
X174340450Y-87005390D02*
X174441640Y-86957771D01*
X174441640Y-86957771D02*
X174679736Y-86957771D01*
X174679736Y-86957771D02*
X174769021Y-87005390D01*
X174769021Y-87005390D02*
X174810688Y-87053009D01*
X174810688Y-87053009D02*
X174846402Y-87148247D01*
X174846402Y-87148247D02*
X174816640Y-87386342D01*
X174816640Y-87386342D02*
X174757117Y-87481580D01*
X174757117Y-87481580D02*
X174703545Y-87529200D01*
X174703545Y-87529200D02*
X174602355Y-87576819D01*
X174602355Y-87576819D02*
X174364259Y-87576819D01*
X174364259Y-87576819D02*
X174274974Y-87529200D01*
X174274974Y-87529200D02*
X174233307Y-87481580D01*
X175298783Y-86576819D02*
X175274974Y-86767295D01*
X175679736Y-86576819D02*
X175655926Y-86767295D01*
X176685689Y-86910152D02*
X177066641Y-86910152D01*
X176745212Y-87576819D02*
X176852355Y-86719676D01*
X176852355Y-86719676D02*
X176911879Y-86624438D01*
X176911879Y-86624438D02*
X177013070Y-86576819D01*
X177013070Y-86576819D02*
X177108308Y-86576819D01*
X177459499Y-87576819D02*
X177370213Y-87529200D01*
X177370213Y-87529200D02*
X177334499Y-87433961D01*
X177334499Y-87433961D02*
X177441641Y-86576819D01*
X177983309Y-87576819D02*
X177894023Y-87529200D01*
X177894023Y-87529200D02*
X177852356Y-87481580D01*
X177852356Y-87481580D02*
X177816642Y-87386342D01*
X177816642Y-87386342D02*
X177852356Y-87100628D01*
X177852356Y-87100628D02*
X177911880Y-87005390D01*
X177911880Y-87005390D02*
X177965451Y-86957771D01*
X177965451Y-86957771D02*
X178066642Y-86910152D01*
X178066642Y-86910152D02*
X178209499Y-86910152D01*
X178209499Y-86910152D02*
X178298785Y-86957771D01*
X178298785Y-86957771D02*
X178340451Y-87005390D01*
X178340451Y-87005390D02*
X178376166Y-87100628D01*
X178376166Y-87100628D02*
X178340451Y-87386342D01*
X178340451Y-87386342D02*
X178280928Y-87481580D01*
X178280928Y-87481580D02*
X178227356Y-87529200D01*
X178227356Y-87529200D02*
X178126166Y-87576819D01*
X178126166Y-87576819D02*
X177983309Y-87576819D01*
X178828547Y-86910152D02*
X178703547Y-87910152D01*
X178822594Y-86957771D02*
X178923785Y-86910152D01*
X178923785Y-86910152D02*
X179114261Y-86910152D01*
X179114261Y-86910152D02*
X179203547Y-86957771D01*
X179203547Y-86957771D02*
X179245213Y-87005390D01*
X179245213Y-87005390D02*
X179280928Y-87100628D01*
X179280928Y-87100628D02*
X179245213Y-87386342D01*
X179245213Y-87386342D02*
X179185690Y-87481580D01*
X179185690Y-87481580D02*
X179132118Y-87529200D01*
X179132118Y-87529200D02*
X179030928Y-87576819D01*
X179030928Y-87576819D02*
X178840451Y-87576819D01*
X178840451Y-87576819D02*
X178751166Y-87529200D01*
X179733309Y-86910152D02*
X179608309Y-87910152D01*
X179727356Y-86957771D02*
X179828547Y-86910152D01*
X179828547Y-86910152D02*
X180019023Y-86910152D01*
X180019023Y-86910152D02*
X180108309Y-86957771D01*
X180108309Y-86957771D02*
X180149975Y-87005390D01*
X180149975Y-87005390D02*
X180185690Y-87100628D01*
X180185690Y-87100628D02*
X180149975Y-87386342D01*
X180149975Y-87386342D02*
X180090452Y-87481580D01*
X180090452Y-87481580D02*
X180036880Y-87529200D01*
X180036880Y-87529200D02*
X179935690Y-87576819D01*
X179935690Y-87576819D02*
X179745213Y-87576819D01*
X179745213Y-87576819D02*
X179655928Y-87529200D01*
X180542833Y-86910152D02*
X180697595Y-87576819D01*
X181019023Y-86910152D02*
X180697595Y-87576819D01*
X180697595Y-87576819D02*
X180572595Y-87814914D01*
X180572595Y-87814914D02*
X180519023Y-87862533D01*
X180519023Y-87862533D02*
X180417833Y-87910152D01*
X182507119Y-87576819D02*
X182572595Y-87053009D01*
X182572595Y-87053009D02*
X182536881Y-86957771D01*
X182536881Y-86957771D02*
X182447595Y-86910152D01*
X182447595Y-86910152D02*
X182257119Y-86910152D01*
X182257119Y-86910152D02*
X182155928Y-86957771D01*
X182513071Y-87529200D02*
X182411881Y-87576819D01*
X182411881Y-87576819D02*
X182173785Y-87576819D01*
X182173785Y-87576819D02*
X182084500Y-87529200D01*
X182084500Y-87529200D02*
X182048785Y-87433961D01*
X182048785Y-87433961D02*
X182060690Y-87338723D01*
X182060690Y-87338723D02*
X182120214Y-87243485D01*
X182120214Y-87243485D02*
X182221405Y-87195866D01*
X182221405Y-87195866D02*
X182459500Y-87195866D01*
X182459500Y-87195866D02*
X182560690Y-87148247D01*
X183411881Y-87576819D02*
X183536881Y-86576819D01*
X183417833Y-87529200D02*
X183316643Y-87576819D01*
X183316643Y-87576819D02*
X183126167Y-87576819D01*
X183126167Y-87576819D02*
X183036881Y-87529200D01*
X183036881Y-87529200D02*
X182995214Y-87481580D01*
X182995214Y-87481580D02*
X182959500Y-87386342D01*
X182959500Y-87386342D02*
X182995214Y-87100628D01*
X182995214Y-87100628D02*
X183054738Y-87005390D01*
X183054738Y-87005390D02*
X183108309Y-86957771D01*
X183108309Y-86957771D02*
X183209500Y-86910152D01*
X183209500Y-86910152D02*
X183399976Y-86910152D01*
X183399976Y-86910152D02*
X183489262Y-86957771D01*
X184316643Y-87576819D02*
X184382119Y-87053009D01*
X184382119Y-87053009D02*
X184346405Y-86957771D01*
X184346405Y-86957771D02*
X184257119Y-86910152D01*
X184257119Y-86910152D02*
X184066643Y-86910152D01*
X184066643Y-86910152D02*
X183965452Y-86957771D01*
X184322595Y-87529200D02*
X184221405Y-87576819D01*
X184221405Y-87576819D02*
X183983309Y-87576819D01*
X183983309Y-87576819D02*
X183894024Y-87529200D01*
X183894024Y-87529200D02*
X183858309Y-87433961D01*
X183858309Y-87433961D02*
X183870214Y-87338723D01*
X183870214Y-87338723D02*
X183929738Y-87243485D01*
X183929738Y-87243485D02*
X184030929Y-87195866D01*
X184030929Y-87195866D02*
X184269024Y-87195866D01*
X184269024Y-87195866D02*
X184370214Y-87148247D01*
X184876167Y-86910152D02*
X184751167Y-87910152D01*
X184870214Y-86957771D02*
X184971405Y-86910152D01*
X184971405Y-86910152D02*
X185161881Y-86910152D01*
X185161881Y-86910152D02*
X185251167Y-86957771D01*
X185251167Y-86957771D02*
X185292833Y-87005390D01*
X185292833Y-87005390D02*
X185328548Y-87100628D01*
X185328548Y-87100628D02*
X185292833Y-87386342D01*
X185292833Y-87386342D02*
X185233310Y-87481580D01*
X185233310Y-87481580D02*
X185179738Y-87529200D01*
X185179738Y-87529200D02*
X185078548Y-87576819D01*
X185078548Y-87576819D02*
X184888071Y-87576819D01*
X184888071Y-87576819D02*
X184798786Y-87529200D01*
X185638072Y-86910152D02*
X186019024Y-86910152D01*
X185822595Y-86576819D02*
X185715453Y-87433961D01*
X185715453Y-87433961D02*
X185751167Y-87529200D01*
X185751167Y-87529200D02*
X185840453Y-87576819D01*
X185840453Y-87576819D02*
X185935691Y-87576819D01*
X186655929Y-87529200D02*
X186554739Y-87576819D01*
X186554739Y-87576819D02*
X186364262Y-87576819D01*
X186364262Y-87576819D02*
X186274977Y-87529200D01*
X186274977Y-87529200D02*
X186239262Y-87433961D01*
X186239262Y-87433961D02*
X186286882Y-87053009D01*
X186286882Y-87053009D02*
X186346405Y-86957771D01*
X186346405Y-86957771D02*
X186447596Y-86910152D01*
X186447596Y-86910152D02*
X186638072Y-86910152D01*
X186638072Y-86910152D02*
X186727358Y-86957771D01*
X186727358Y-86957771D02*
X186763072Y-87053009D01*
X186763072Y-87053009D02*
X186751167Y-87148247D01*
X186751167Y-87148247D02*
X186263072Y-87243485D01*
X187126167Y-87576819D02*
X187209501Y-86910152D01*
X187185691Y-87100628D02*
X187245215Y-87005390D01*
X187245215Y-87005390D02*
X187298786Y-86957771D01*
X187298786Y-86957771D02*
X187399977Y-86910152D01*
X187399977Y-86910152D02*
X187495215Y-86910152D01*
X188507120Y-87576819D02*
X188632120Y-86576819D01*
X188584501Y-86957771D02*
X188685692Y-86910152D01*
X188685692Y-86910152D02*
X188876168Y-86910152D01*
X188876168Y-86910152D02*
X188965454Y-86957771D01*
X188965454Y-86957771D02*
X189007120Y-87005390D01*
X189007120Y-87005390D02*
X189042835Y-87100628D01*
X189042835Y-87100628D02*
X189007120Y-87386342D01*
X189007120Y-87386342D02*
X188947597Y-87481580D01*
X188947597Y-87481580D02*
X188894025Y-87529200D01*
X188894025Y-87529200D02*
X188792835Y-87576819D01*
X188792835Y-87576819D02*
X188602358Y-87576819D01*
X188602358Y-87576819D02*
X188513073Y-87529200D01*
X189554740Y-87576819D02*
X189465454Y-87529200D01*
X189465454Y-87529200D02*
X189423787Y-87481580D01*
X189423787Y-87481580D02*
X189388073Y-87386342D01*
X189388073Y-87386342D02*
X189423787Y-87100628D01*
X189423787Y-87100628D02*
X189483311Y-87005390D01*
X189483311Y-87005390D02*
X189536882Y-86957771D01*
X189536882Y-86957771D02*
X189638073Y-86910152D01*
X189638073Y-86910152D02*
X189780930Y-86910152D01*
X189780930Y-86910152D02*
X189870216Y-86957771D01*
X189870216Y-86957771D02*
X189911882Y-87005390D01*
X189911882Y-87005390D02*
X189947597Y-87100628D01*
X189947597Y-87100628D02*
X189911882Y-87386342D01*
X189911882Y-87386342D02*
X189852359Y-87481580D01*
X189852359Y-87481580D02*
X189798787Y-87529200D01*
X189798787Y-87529200D02*
X189697597Y-87576819D01*
X189697597Y-87576819D02*
X189554740Y-87576819D01*
X190745216Y-87576819D02*
X190810692Y-87053009D01*
X190810692Y-87053009D02*
X190774978Y-86957771D01*
X190774978Y-86957771D02*
X190685692Y-86910152D01*
X190685692Y-86910152D02*
X190495216Y-86910152D01*
X190495216Y-86910152D02*
X190394025Y-86957771D01*
X190751168Y-87529200D02*
X190649978Y-87576819D01*
X190649978Y-87576819D02*
X190411882Y-87576819D01*
X190411882Y-87576819D02*
X190322597Y-87529200D01*
X190322597Y-87529200D02*
X190286882Y-87433961D01*
X190286882Y-87433961D02*
X190298787Y-87338723D01*
X190298787Y-87338723D02*
X190358311Y-87243485D01*
X190358311Y-87243485D02*
X190459502Y-87195866D01*
X190459502Y-87195866D02*
X190697597Y-87195866D01*
X190697597Y-87195866D02*
X190798787Y-87148247D01*
X191221406Y-87576819D02*
X191304740Y-86910152D01*
X191280930Y-87100628D02*
X191340454Y-87005390D01*
X191340454Y-87005390D02*
X191394025Y-86957771D01*
X191394025Y-86957771D02*
X191495216Y-86910152D01*
X191495216Y-86910152D02*
X191590454Y-86910152D01*
X192269026Y-87576819D02*
X192394026Y-86576819D01*
X192274978Y-87529200D02*
X192173788Y-87576819D01*
X192173788Y-87576819D02*
X191983312Y-87576819D01*
X191983312Y-87576819D02*
X191894026Y-87529200D01*
X191894026Y-87529200D02*
X191852359Y-87481580D01*
X191852359Y-87481580D02*
X191816645Y-87386342D01*
X191816645Y-87386342D02*
X191852359Y-87100628D01*
X191852359Y-87100628D02*
X191911883Y-87005390D01*
X191911883Y-87005390D02*
X191965454Y-86957771D01*
X191965454Y-86957771D02*
X192066645Y-86910152D01*
X192066645Y-86910152D02*
X192257121Y-86910152D01*
X192257121Y-86910152D02*
X192346407Y-86957771D01*
X203460214Y-85004592D02*
X203495928Y-84968878D01*
X203495928Y-84968878D02*
X203567357Y-84933164D01*
X203567357Y-84933164D02*
X203745928Y-84933164D01*
X203745928Y-84933164D02*
X203817357Y-84968878D01*
X203817357Y-84968878D02*
X203853071Y-85004592D01*
X203853071Y-85004592D02*
X203888785Y-85076021D01*
X203888785Y-85076021D02*
X203888785Y-85147450D01*
X203888785Y-85147450D02*
X203853071Y-85254592D01*
X203853071Y-85254592D02*
X203424499Y-85683164D01*
X203424499Y-85683164D02*
X203888785Y-85683164D01*
M02*
