M48
; DRILL file {KiCad 7.0.7} date Sun Nov 12 13:18:53 2023
; FORMAT={-:-/ absolute / inch / decimal}
; #@! TF.CreationDate,2023-11-12T13:18:53+03:00
; #@! TF.GenerationSoftware,Kicad,Pcbnew,7.0.7
; #@! TF.FileFunction,Plated,1,2,PTH
FMAT,2
INCH
; #@! TA.AperFunction,Plated,PTH,ComponentDrill
T1C0.0394
; #@! TA.AperFunction,Plated,PTH,ComponentDrill
T2C0.1575
%
G90
G05
T1
X6.0614Y-3.8783
X6.0614Y-3.9783
X6.1614Y-3.8783
X6.1614Y-3.9783
X6.2614Y-3.8783
X6.2614Y-3.9783
X6.3614Y-3.8783
X6.3614Y-3.9783
X6.4614Y-3.8783
X6.4614Y-3.9783
X6.5614Y-3.8783
X6.5614Y-3.9783
X6.6614Y-3.8783
X6.6614Y-3.9783
X6.7614Y-3.8783
X6.7614Y-3.9783
X6.8614Y-3.8783
X6.8614Y-3.9783
X6.9614Y-3.8783
X6.9614Y-3.9783
X7.0614Y-3.8783
X7.0614Y-3.9783
X7.1614Y-3.8783
X7.1614Y-3.9783
X7.2614Y-3.8783
X7.2614Y-3.9783
X7.3614Y-3.8783
X7.3614Y-3.9783
X7.4614Y-3.8783
X7.4614Y-3.9783
X7.5614Y-3.8783
X7.5614Y-3.9783
X7.6614Y-3.8783
X7.6614Y-3.9783
T2
X5.378Y-4.5197
X7.8091Y-4.5197
T0
M30
