G04 #@! TF.GenerationSoftware,KiCad,Pcbnew,7.0.7*
G04 #@! TF.CreationDate,2023-11-12T13:18:28+03:00*
G04 #@! TF.ProjectId,floppy-adapter-4,666c6f70-7079-42d6-9164-61707465722d,rev?*
G04 #@! TF.SameCoordinates,Original*
G04 #@! TF.FileFunction,Copper,L2,Bot*
G04 #@! TF.FilePolarity,Positive*
%FSLAX46Y46*%
G04 Gerber Fmt 4.6, Leading zero omitted, Abs format (unit mm)*
G04 Created by KiCad (PCBNEW 7.0.7) date 2023-11-12 13:18:28*
%MOMM*%
%LPD*%
G01*
G04 APERTURE LIST*
G04 #@! TA.AperFunction,ComponentPad*
%ADD10C,7.000000*%
G04 #@! TD*
G04 #@! TA.AperFunction,ComponentPad*
%ADD11R,1.700000X1.700000*%
G04 #@! TD*
G04 #@! TA.AperFunction,ComponentPad*
%ADD12O,1.700000X1.700000*%
G04 #@! TD*
G04 #@! TA.AperFunction,SMDPad,CuDef*
%ADD13R,1.600000X11.000000*%
G04 #@! TD*
G04 #@! TA.AperFunction,SMDPad,CuDef*
%ADD14R,1.300000X11.000000*%
G04 #@! TD*
G04 #@! TA.AperFunction,Conductor*
%ADD15C,0.350000*%
G04 #@! TD*
G04 #@! TA.AperFunction,Conductor*
%ADD16C,0.500000*%
G04 #@! TD*
G04 APERTURE END LIST*
D10*
X136600000Y-114800000D03*
X198350000Y-114800000D03*
D11*
X153960000Y-98510000D03*
D12*
X153960000Y-101050000D03*
X156500000Y-98510000D03*
X156500000Y-101050000D03*
X159040000Y-98510000D03*
X159040000Y-101050000D03*
X161580000Y-98510000D03*
X161580000Y-101050000D03*
X164120000Y-98510000D03*
X164120000Y-101050000D03*
X166660000Y-98510000D03*
X166660000Y-101050000D03*
X169200000Y-98510000D03*
X169200000Y-101050000D03*
X171740000Y-98510000D03*
X171740000Y-101050000D03*
X174280000Y-98510000D03*
X174280000Y-101050000D03*
X176820000Y-98510000D03*
X176820000Y-101050000D03*
X179360000Y-98510000D03*
X179360000Y-101050000D03*
X181900000Y-98510000D03*
X181900000Y-101050000D03*
X184440000Y-98510000D03*
X184440000Y-101050000D03*
X186980000Y-98510000D03*
X186980000Y-101050000D03*
X189520000Y-98510000D03*
X189520000Y-101050000D03*
X192060000Y-98510000D03*
X192060000Y-101050000D03*
X194600000Y-98510000D03*
X194600000Y-101050000D03*
D13*
X202023500Y-80441800D03*
D14*
X199674000Y-80454500D03*
X196689500Y-80441800D03*
D13*
X194403500Y-80441800D03*
X191863500Y-80441800D03*
X189323500Y-80441800D03*
X186783500Y-80441800D03*
X184243500Y-80441800D03*
X181703500Y-80441800D03*
X179163500Y-80441800D03*
X176623500Y-80441800D03*
X174083500Y-80441800D03*
X171543500Y-80441800D03*
X169003500Y-80441800D03*
X166463500Y-80441800D03*
X163923500Y-80441800D03*
X161383500Y-80441800D03*
D15*
X181900000Y-98510000D02*
X181900000Y-94900000D01*
D16*
X191863500Y-80441800D02*
X191863500Y-87936500D01*
X199674000Y-80454500D02*
X199674000Y-87974000D01*
X202023500Y-80441800D02*
X202023500Y-88000000D01*
X181703500Y-80441800D02*
X181703500Y-87996500D01*
X186783500Y-80441800D02*
X186783500Y-87983500D01*
X163923500Y-80441800D02*
X163923500Y-88276500D01*
D15*
X184440000Y-98510000D02*
X184440000Y-94760000D01*
D16*
X179163500Y-80441800D02*
X179163500Y-88063500D01*
D15*
X174280000Y-98510000D02*
X174280000Y-94920000D01*
X194600000Y-98510000D02*
X194600000Y-94600000D01*
D16*
X171543500Y-80441800D02*
X171543500Y-88056500D01*
D15*
X156500000Y-98510000D02*
X156500000Y-95100000D01*
X189520000Y-98510000D02*
X189520000Y-94620000D01*
X161580000Y-98510000D02*
X161580000Y-95080000D01*
D16*
X161383500Y-80441800D02*
X161383500Y-88316500D01*
X189323500Y-80441800D02*
X189323500Y-87976500D01*
D15*
X179360000Y-98510000D02*
X179360000Y-94840000D01*
X166660000Y-98510000D02*
X166660000Y-95040000D01*
D16*
X184243500Y-80441800D02*
X184243500Y-87956500D01*
D15*
X153960000Y-98510000D02*
X153960000Y-95240000D01*
X164120000Y-98510000D02*
X164120000Y-95120000D01*
D16*
X176623500Y-80441800D02*
X176623500Y-88076500D01*
X194403500Y-87996500D02*
X194400000Y-88000000D01*
D15*
X171740000Y-98510000D02*
X171740000Y-95040000D01*
D16*
X174083500Y-80441800D02*
X174083500Y-88083500D01*
D15*
X186980000Y-98510000D02*
X186980000Y-94720000D01*
X159040000Y-98510000D02*
X159040000Y-95040000D01*
D16*
X166463500Y-80441800D02*
X166463500Y-88236500D01*
D15*
X192060000Y-98510000D02*
X192060000Y-94560000D01*
X169200000Y-98510000D02*
X169200000Y-95000000D01*
D16*
X169003500Y-80441800D02*
X169003500Y-88196500D01*
X194403500Y-80441800D02*
X194403500Y-87996500D01*
X196689500Y-80441800D02*
X196689500Y-87910500D01*
D15*
X176820000Y-98510000D02*
X176820000Y-94920000D01*
G04 #@! TA.AperFunction,Conductor*
G36*
X158793039Y-85845185D02*
G01*
X158838794Y-85897989D01*
X158850000Y-85949500D01*
X158850000Y-87300000D01*
X204500000Y-87300000D01*
X204500000Y-85949500D01*
X204519685Y-85882461D01*
X204572489Y-85836706D01*
X204624000Y-85825500D01*
X217350500Y-85825500D01*
X217417539Y-85845185D01*
X217463294Y-85897989D01*
X217474500Y-85949500D01*
X217474500Y-121450500D01*
X217454815Y-121517539D01*
X217402011Y-121563294D01*
X217350500Y-121574500D01*
X117649500Y-121574500D01*
X117582461Y-121554815D01*
X117536706Y-121502011D01*
X117525500Y-121450500D01*
X117525500Y-114800000D01*
X132586666Y-114800000D01*
X132605991Y-115193376D01*
X132605991Y-115193381D01*
X132605992Y-115193385D01*
X132663780Y-115582959D01*
X132759482Y-115965019D01*
X132892155Y-116335816D01*
X132892163Y-116335836D01*
X133060555Y-116691873D01*
X133060558Y-116691878D01*
X133060559Y-116691880D01*
X133263033Y-117029686D01*
X133497655Y-117346037D01*
X133762143Y-117637856D01*
X134053962Y-117902344D01*
X134053968Y-117902349D01*
X134370311Y-118136965D01*
X134708127Y-118339445D01*
X135064164Y-118507837D01*
X135064178Y-118507842D01*
X135064183Y-118507844D01*
X135345516Y-118608506D01*
X135434991Y-118640521D01*
X135817037Y-118736219D01*
X136206624Y-118794009D01*
X136600000Y-118813334D01*
X136993376Y-118794009D01*
X137382963Y-118736219D01*
X137765009Y-118640521D01*
X138135836Y-118507837D01*
X138491873Y-118339445D01*
X138829689Y-118136965D01*
X139146032Y-117902349D01*
X139437856Y-117637856D01*
X139702349Y-117346032D01*
X139936965Y-117029689D01*
X140139445Y-116691873D01*
X140307837Y-116335836D01*
X140440521Y-115965009D01*
X140536219Y-115582963D01*
X140594009Y-115193376D01*
X140613334Y-114800000D01*
X194336666Y-114800000D01*
X194355991Y-115193376D01*
X194355991Y-115193381D01*
X194355992Y-115193385D01*
X194413780Y-115582959D01*
X194509482Y-115965019D01*
X194642155Y-116335816D01*
X194642163Y-116335836D01*
X194810555Y-116691873D01*
X194810558Y-116691878D01*
X194810559Y-116691880D01*
X195013033Y-117029686D01*
X195247655Y-117346037D01*
X195512143Y-117637856D01*
X195803962Y-117902344D01*
X195803968Y-117902349D01*
X196120311Y-118136965D01*
X196458127Y-118339445D01*
X196814164Y-118507837D01*
X196814178Y-118507842D01*
X196814183Y-118507844D01*
X197095516Y-118608506D01*
X197184991Y-118640521D01*
X197567037Y-118736219D01*
X197956624Y-118794009D01*
X198350000Y-118813334D01*
X198743376Y-118794009D01*
X199132963Y-118736219D01*
X199515009Y-118640521D01*
X199885836Y-118507837D01*
X200241873Y-118339445D01*
X200579689Y-118136965D01*
X200896032Y-117902349D01*
X201187856Y-117637856D01*
X201452349Y-117346032D01*
X201686965Y-117029689D01*
X201889445Y-116691873D01*
X202057837Y-116335836D01*
X202190521Y-115965009D01*
X202286219Y-115582963D01*
X202344009Y-115193376D01*
X202363334Y-114800000D01*
X202344009Y-114406624D01*
X202286219Y-114017037D01*
X202190521Y-113634991D01*
X202057837Y-113264164D01*
X201889445Y-112908127D01*
X201686965Y-112570311D01*
X201452349Y-112253968D01*
X201452344Y-112253962D01*
X201187856Y-111962143D01*
X200896037Y-111697655D01*
X200579686Y-111463033D01*
X200241880Y-111260559D01*
X200241878Y-111260558D01*
X200241873Y-111260555D01*
X199885836Y-111092163D01*
X199885816Y-111092155D01*
X199515019Y-110959482D01*
X199515013Y-110959480D01*
X199515009Y-110959479D01*
X199132963Y-110863781D01*
X199132962Y-110863780D01*
X199132959Y-110863780D01*
X198743385Y-110805992D01*
X198743381Y-110805991D01*
X198743376Y-110805991D01*
X198350000Y-110786666D01*
X197956624Y-110805991D01*
X197956618Y-110805991D01*
X197956614Y-110805992D01*
X197567040Y-110863780D01*
X197374497Y-110912009D01*
X197184991Y-110959479D01*
X197184988Y-110959479D01*
X197184980Y-110959482D01*
X196814183Y-111092155D01*
X196814163Y-111092163D01*
X196458119Y-111260559D01*
X196120313Y-111463033D01*
X195803962Y-111697655D01*
X195512143Y-111962143D01*
X195247655Y-112253962D01*
X195013033Y-112570313D01*
X194810559Y-112908119D01*
X194642163Y-113264163D01*
X194642155Y-113264183D01*
X194509482Y-113634980D01*
X194413780Y-114017040D01*
X194355992Y-114406614D01*
X194355991Y-114406624D01*
X194336666Y-114800000D01*
X140613334Y-114800000D01*
X140594009Y-114406624D01*
X140536219Y-114017037D01*
X140440521Y-113634991D01*
X140307837Y-113264164D01*
X140139445Y-112908127D01*
X139936965Y-112570311D01*
X139702349Y-112253968D01*
X139702344Y-112253962D01*
X139437856Y-111962143D01*
X139146037Y-111697655D01*
X138829686Y-111463033D01*
X138491880Y-111260559D01*
X138491878Y-111260558D01*
X138491873Y-111260555D01*
X138135836Y-111092163D01*
X138135816Y-111092155D01*
X137765019Y-110959482D01*
X137765013Y-110959480D01*
X137765009Y-110959479D01*
X137382963Y-110863781D01*
X137382962Y-110863780D01*
X137382959Y-110863780D01*
X136993385Y-110805992D01*
X136993381Y-110805991D01*
X136993376Y-110805991D01*
X136600000Y-110786666D01*
X136206624Y-110805991D01*
X136206618Y-110805991D01*
X136206614Y-110805992D01*
X135817040Y-110863780D01*
X135624497Y-110912009D01*
X135434991Y-110959479D01*
X135434988Y-110959479D01*
X135434980Y-110959482D01*
X135064183Y-111092155D01*
X135064163Y-111092163D01*
X134708119Y-111260559D01*
X134370313Y-111463033D01*
X134053962Y-111697655D01*
X133762143Y-111962143D01*
X133497655Y-112253962D01*
X133263033Y-112570313D01*
X133060559Y-112908119D01*
X132892163Y-113264163D01*
X132892155Y-113264183D01*
X132759482Y-113634980D01*
X132663780Y-114017040D01*
X132605992Y-114406614D01*
X132605991Y-114406624D01*
X132586666Y-114800000D01*
X117525500Y-114800000D01*
X117525500Y-95950000D01*
X151500000Y-95950000D01*
X151500000Y-103650000D01*
X197200000Y-103650000D01*
X197200000Y-95950000D01*
X151500000Y-95950000D01*
X117525500Y-95950000D01*
X117525500Y-85949500D01*
X117545185Y-85882461D01*
X117597989Y-85836706D01*
X117649500Y-85825500D01*
X158726000Y-85825500D01*
X158793039Y-85845185D01*
G37*
G04 #@! TD.AperFunction*
M02*
