G04 #@! TF.GenerationSoftware,KiCad,Pcbnew,7.0.7*
G04 #@! TF.CreationDate,2023-11-12T13:18:29+03:00*
G04 #@! TF.ProjectId,floppy-adapter-4,666c6f70-7079-42d6-9164-61707465722d,rev?*
G04 #@! TF.SameCoordinates,Original*
G04 #@! TF.FileFunction,Soldermask,Bot*
G04 #@! TF.FilePolarity,Negative*
%FSLAX46Y46*%
G04 Gerber Fmt 4.6, Leading zero omitted, Abs format (unit mm)*
G04 Created by KiCad (PCBNEW 7.0.7) date 2023-11-12 13:18:29*
%MOMM*%
%LPD*%
G01*
G04 APERTURE LIST*
G04 APERTURE END LIST*
G36*
X136971181Y-111268453D02*
G01*
X137338294Y-111326598D01*
X137697319Y-111422798D01*
X138044322Y-111556000D01*
X138375500Y-111724744D01*
X138687225Y-111927181D01*
X138976083Y-112161093D01*
X139238907Y-112423917D01*
X139472819Y-112712775D01*
X139675256Y-113024500D01*
X139844000Y-113355678D01*
X139977202Y-113702681D01*
X140073402Y-114061706D01*
X140131547Y-114428819D01*
X140151000Y-114800000D01*
X140131547Y-115171181D01*
X140073402Y-115538294D01*
X139977202Y-115897319D01*
X139844000Y-116244322D01*
X139675256Y-116575500D01*
X139472819Y-116887225D01*
X139238907Y-117176083D01*
X138976083Y-117438907D01*
X138687225Y-117672819D01*
X138375500Y-117875256D01*
X138044322Y-118044000D01*
X137697319Y-118177202D01*
X137338294Y-118273402D01*
X136971181Y-118331547D01*
X136600000Y-118351000D01*
X136228819Y-118331547D01*
X135861706Y-118273402D01*
X135502681Y-118177202D01*
X135155678Y-118044000D01*
X134824500Y-117875256D01*
X134512775Y-117672819D01*
X134223917Y-117438907D01*
X133961093Y-117176083D01*
X133727181Y-116887225D01*
X133524744Y-116575500D01*
X133356000Y-116244322D01*
X133222798Y-115897319D01*
X133126598Y-115538294D01*
X133068453Y-115171181D01*
X133049000Y-114800000D01*
X133068453Y-114428819D01*
X133126598Y-114061706D01*
X133222798Y-113702681D01*
X133356000Y-113355678D01*
X133524744Y-113024500D01*
X133727181Y-112712775D01*
X133961093Y-112423917D01*
X134223917Y-112161093D01*
X134512775Y-111927181D01*
X134824500Y-111724744D01*
X135155678Y-111556000D01*
X135502681Y-111422798D01*
X135861706Y-111326598D01*
X136228819Y-111268453D01*
X136600000Y-111249000D01*
X136971181Y-111268453D01*
G37*
G36*
X198721181Y-111268453D02*
G01*
X199088294Y-111326598D01*
X199447319Y-111422798D01*
X199794322Y-111556000D01*
X200125500Y-111724744D01*
X200437225Y-111927181D01*
X200726083Y-112161093D01*
X200988907Y-112423917D01*
X201222819Y-112712775D01*
X201425256Y-113024500D01*
X201594000Y-113355678D01*
X201727202Y-113702681D01*
X201823402Y-114061706D01*
X201881547Y-114428819D01*
X201901000Y-114800000D01*
X201881547Y-115171181D01*
X201823402Y-115538294D01*
X201727202Y-115897319D01*
X201594000Y-116244322D01*
X201425256Y-116575500D01*
X201222819Y-116887225D01*
X200988907Y-117176083D01*
X200726083Y-117438907D01*
X200437225Y-117672819D01*
X200125500Y-117875256D01*
X199794322Y-118044000D01*
X199447319Y-118177202D01*
X199088294Y-118273402D01*
X198721181Y-118331547D01*
X198350000Y-118351000D01*
X197978819Y-118331547D01*
X197611706Y-118273402D01*
X197252681Y-118177202D01*
X196905678Y-118044000D01*
X196574500Y-117875256D01*
X196262775Y-117672819D01*
X195973917Y-117438907D01*
X195711093Y-117176083D01*
X195477181Y-116887225D01*
X195274744Y-116575500D01*
X195106000Y-116244322D01*
X194972798Y-115897319D01*
X194876598Y-115538294D01*
X194818453Y-115171181D01*
X194799000Y-114800000D01*
X194818453Y-114428819D01*
X194876598Y-114061706D01*
X194972798Y-113702681D01*
X195106000Y-113355678D01*
X195274744Y-113024500D01*
X195477181Y-112712775D01*
X195711093Y-112423917D01*
X195973917Y-112161093D01*
X196262775Y-111927181D01*
X196574500Y-111724744D01*
X196905678Y-111556000D01*
X197252681Y-111422798D01*
X197611706Y-111326598D01*
X197978819Y-111268453D01*
X198350000Y-111249000D01*
X198721181Y-111268453D01*
G37*
G36*
X154003983Y-100153936D02*
G01*
X154054180Y-100153936D01*
X154097524Y-100163149D01*
X154135659Y-100166905D01*
X154183566Y-100181437D01*
X154238424Y-100193098D01*
X154273530Y-100208728D01*
X154304566Y-100218143D01*
X154353884Y-100244504D01*
X154410500Y-100269711D01*
X154436822Y-100288835D01*
X154460232Y-100301348D01*
X154507988Y-100340540D01*
X154562887Y-100380427D01*
X154580711Y-100400223D01*
X154596675Y-100413324D01*
X154639572Y-100465594D01*
X154688924Y-100520405D01*
X154699292Y-100538363D01*
X154708651Y-100549767D01*
X154743273Y-100614542D01*
X154783104Y-100683530D01*
X154787685Y-100697630D01*
X154791856Y-100705433D01*
X154814852Y-100781242D01*
X154841311Y-100862672D01*
X154842242Y-100871532D01*
X154843094Y-100874340D01*
X154851385Y-100958520D01*
X154861000Y-101050000D01*
X154851382Y-101141501D01*
X154843094Y-101225659D01*
X154842242Y-101228466D01*
X154841311Y-101237328D01*
X154814848Y-101318771D01*
X154791856Y-101394566D01*
X154787686Y-101402366D01*
X154783104Y-101416470D01*
X154743266Y-101485470D01*
X154708651Y-101550232D01*
X154699294Y-101561633D01*
X154688924Y-101579595D01*
X154639563Y-101634415D01*
X154596675Y-101686675D01*
X154580714Y-101699773D01*
X154562887Y-101719573D01*
X154507977Y-101759467D01*
X154460232Y-101798651D01*
X154436827Y-101811161D01*
X154410500Y-101830289D01*
X154353873Y-101855500D01*
X154304566Y-101881856D01*
X154273537Y-101891268D01*
X154238424Y-101906902D01*
X154183555Y-101918564D01*
X154135659Y-101933094D01*
X154097533Y-101936849D01*
X154054180Y-101946064D01*
X154003972Y-101946064D01*
X153959999Y-101950395D01*
X153916026Y-101946064D01*
X153865820Y-101946064D01*
X153822467Y-101936849D01*
X153784340Y-101933094D01*
X153736441Y-101918563D01*
X153681576Y-101906902D01*
X153646464Y-101891269D01*
X153615433Y-101881856D01*
X153566120Y-101855498D01*
X153509500Y-101830289D01*
X153483175Y-101811163D01*
X153459767Y-101798651D01*
X153412013Y-101759460D01*
X153357113Y-101719573D01*
X153339287Y-101699776D01*
X153323324Y-101686675D01*
X153280425Y-101634402D01*
X153231076Y-101579595D01*
X153220708Y-101561637D01*
X153211348Y-101550232D01*
X153176719Y-101485447D01*
X153136896Y-101416470D01*
X153132315Y-101402371D01*
X153128143Y-101394566D01*
X153105136Y-101318725D01*
X153078689Y-101237328D01*
X153077758Y-101228471D01*
X153076905Y-101225659D01*
X153068601Y-101141349D01*
X153059000Y-101050000D01*
X153068598Y-100958672D01*
X153076905Y-100874340D01*
X153077758Y-100871527D01*
X153078689Y-100862672D01*
X153105132Y-100781288D01*
X153128143Y-100705433D01*
X153132315Y-100697626D01*
X153136896Y-100683530D01*
X153176712Y-100614565D01*
X153211348Y-100549767D01*
X153220710Y-100538359D01*
X153231076Y-100520405D01*
X153280416Y-100465607D01*
X153323324Y-100413324D01*
X153339291Y-100400219D01*
X153357113Y-100380427D01*
X153412002Y-100340546D01*
X153459767Y-100301348D01*
X153483180Y-100288833D01*
X153509500Y-100269711D01*
X153566109Y-100244506D01*
X153615433Y-100218143D01*
X153646471Y-100208727D01*
X153681576Y-100193098D01*
X153736430Y-100181438D01*
X153784340Y-100166905D01*
X153822476Y-100163148D01*
X153865820Y-100153936D01*
X153916016Y-100153936D01*
X153959999Y-100149604D01*
X154003983Y-100153936D01*
G37*
G36*
X156543983Y-100153936D02*
G01*
X156594180Y-100153936D01*
X156637524Y-100163149D01*
X156675659Y-100166905D01*
X156723566Y-100181437D01*
X156778424Y-100193098D01*
X156813530Y-100208728D01*
X156844566Y-100218143D01*
X156893884Y-100244504D01*
X156950500Y-100269711D01*
X156976822Y-100288835D01*
X157000232Y-100301348D01*
X157047988Y-100340540D01*
X157102887Y-100380427D01*
X157120711Y-100400223D01*
X157136675Y-100413324D01*
X157179572Y-100465594D01*
X157228924Y-100520405D01*
X157239292Y-100538363D01*
X157248651Y-100549767D01*
X157283273Y-100614542D01*
X157323104Y-100683530D01*
X157327685Y-100697630D01*
X157331856Y-100705433D01*
X157354852Y-100781242D01*
X157381311Y-100862672D01*
X157382242Y-100871532D01*
X157383094Y-100874340D01*
X157391385Y-100958520D01*
X157401000Y-101050000D01*
X157391382Y-101141501D01*
X157383094Y-101225659D01*
X157382242Y-101228466D01*
X157381311Y-101237328D01*
X157354848Y-101318771D01*
X157331856Y-101394566D01*
X157327686Y-101402366D01*
X157323104Y-101416470D01*
X157283266Y-101485470D01*
X157248651Y-101550232D01*
X157239294Y-101561633D01*
X157228924Y-101579595D01*
X157179563Y-101634415D01*
X157136675Y-101686675D01*
X157120714Y-101699773D01*
X157102887Y-101719573D01*
X157047977Y-101759467D01*
X157000232Y-101798651D01*
X156976827Y-101811161D01*
X156950500Y-101830289D01*
X156893873Y-101855500D01*
X156844566Y-101881856D01*
X156813537Y-101891268D01*
X156778424Y-101906902D01*
X156723555Y-101918564D01*
X156675659Y-101933094D01*
X156637533Y-101936849D01*
X156594180Y-101946064D01*
X156543972Y-101946064D01*
X156499999Y-101950395D01*
X156456026Y-101946064D01*
X156405820Y-101946064D01*
X156362467Y-101936849D01*
X156324340Y-101933094D01*
X156276441Y-101918563D01*
X156221576Y-101906902D01*
X156186464Y-101891269D01*
X156155433Y-101881856D01*
X156106120Y-101855498D01*
X156049500Y-101830289D01*
X156023175Y-101811163D01*
X155999767Y-101798651D01*
X155952013Y-101759460D01*
X155897113Y-101719573D01*
X155879287Y-101699776D01*
X155863324Y-101686675D01*
X155820425Y-101634402D01*
X155771076Y-101579595D01*
X155760708Y-101561637D01*
X155751348Y-101550232D01*
X155716719Y-101485447D01*
X155676896Y-101416470D01*
X155672315Y-101402371D01*
X155668143Y-101394566D01*
X155645136Y-101318725D01*
X155618689Y-101237328D01*
X155617758Y-101228471D01*
X155616905Y-101225659D01*
X155608601Y-101141349D01*
X155599000Y-101050000D01*
X155608598Y-100958672D01*
X155616905Y-100874340D01*
X155617758Y-100871527D01*
X155618689Y-100862672D01*
X155645132Y-100781288D01*
X155668143Y-100705433D01*
X155672315Y-100697626D01*
X155676896Y-100683530D01*
X155716712Y-100614565D01*
X155751348Y-100549767D01*
X155760710Y-100538359D01*
X155771076Y-100520405D01*
X155820416Y-100465607D01*
X155863324Y-100413324D01*
X155879291Y-100400219D01*
X155897113Y-100380427D01*
X155952002Y-100340546D01*
X155999767Y-100301348D01*
X156023180Y-100288833D01*
X156049500Y-100269711D01*
X156106109Y-100244506D01*
X156155433Y-100218143D01*
X156186471Y-100208727D01*
X156221576Y-100193098D01*
X156276430Y-100181438D01*
X156324340Y-100166905D01*
X156362476Y-100163148D01*
X156405820Y-100153936D01*
X156456016Y-100153936D01*
X156499999Y-100149604D01*
X156543983Y-100153936D01*
G37*
G36*
X159083983Y-100153936D02*
G01*
X159134180Y-100153936D01*
X159177524Y-100163149D01*
X159215659Y-100166905D01*
X159263566Y-100181437D01*
X159318424Y-100193098D01*
X159353530Y-100208728D01*
X159384566Y-100218143D01*
X159433884Y-100244504D01*
X159490500Y-100269711D01*
X159516822Y-100288835D01*
X159540232Y-100301348D01*
X159587988Y-100340540D01*
X159642887Y-100380427D01*
X159660711Y-100400223D01*
X159676675Y-100413324D01*
X159719572Y-100465594D01*
X159768924Y-100520405D01*
X159779292Y-100538363D01*
X159788651Y-100549767D01*
X159823273Y-100614542D01*
X159863104Y-100683530D01*
X159867685Y-100697630D01*
X159871856Y-100705433D01*
X159894852Y-100781242D01*
X159921311Y-100862672D01*
X159922242Y-100871532D01*
X159923094Y-100874340D01*
X159931385Y-100958520D01*
X159941000Y-101050000D01*
X159931382Y-101141501D01*
X159923094Y-101225659D01*
X159922242Y-101228466D01*
X159921311Y-101237328D01*
X159894848Y-101318771D01*
X159871856Y-101394566D01*
X159867686Y-101402366D01*
X159863104Y-101416470D01*
X159823266Y-101485470D01*
X159788651Y-101550232D01*
X159779294Y-101561633D01*
X159768924Y-101579595D01*
X159719563Y-101634415D01*
X159676675Y-101686675D01*
X159660714Y-101699773D01*
X159642887Y-101719573D01*
X159587977Y-101759467D01*
X159540232Y-101798651D01*
X159516827Y-101811161D01*
X159490500Y-101830289D01*
X159433873Y-101855500D01*
X159384566Y-101881856D01*
X159353537Y-101891268D01*
X159318424Y-101906902D01*
X159263555Y-101918564D01*
X159215659Y-101933094D01*
X159177532Y-101936849D01*
X159134180Y-101946064D01*
X159083973Y-101946064D01*
X159040000Y-101950395D01*
X158996027Y-101946064D01*
X158945820Y-101946064D01*
X158902467Y-101936849D01*
X158864340Y-101933094D01*
X158816441Y-101918563D01*
X158761576Y-101906902D01*
X158726464Y-101891269D01*
X158695433Y-101881856D01*
X158646120Y-101855498D01*
X158589500Y-101830289D01*
X158563175Y-101811163D01*
X158539767Y-101798651D01*
X158492013Y-101759460D01*
X158437113Y-101719573D01*
X158419287Y-101699776D01*
X158403324Y-101686675D01*
X158360425Y-101634402D01*
X158311076Y-101579595D01*
X158300708Y-101561637D01*
X158291348Y-101550232D01*
X158256719Y-101485447D01*
X158216896Y-101416470D01*
X158212315Y-101402371D01*
X158208143Y-101394566D01*
X158185136Y-101318725D01*
X158158689Y-101237328D01*
X158157758Y-101228471D01*
X158156905Y-101225659D01*
X158148601Y-101141349D01*
X158139000Y-101050000D01*
X158148598Y-100958672D01*
X158156905Y-100874340D01*
X158157758Y-100871527D01*
X158158689Y-100862672D01*
X158185132Y-100781288D01*
X158208143Y-100705433D01*
X158212315Y-100697626D01*
X158216896Y-100683530D01*
X158256712Y-100614565D01*
X158291348Y-100549767D01*
X158300710Y-100538359D01*
X158311076Y-100520405D01*
X158360416Y-100465607D01*
X158403324Y-100413324D01*
X158419291Y-100400219D01*
X158437113Y-100380427D01*
X158492002Y-100340546D01*
X158539767Y-100301348D01*
X158563180Y-100288833D01*
X158589500Y-100269711D01*
X158646109Y-100244506D01*
X158695433Y-100218143D01*
X158726471Y-100208727D01*
X158761576Y-100193098D01*
X158816430Y-100181438D01*
X158864340Y-100166905D01*
X158902476Y-100163148D01*
X158945820Y-100153936D01*
X158996016Y-100153936D01*
X159040000Y-100149604D01*
X159083983Y-100153936D01*
G37*
G36*
X161623983Y-100153936D02*
G01*
X161674180Y-100153936D01*
X161717524Y-100163149D01*
X161755659Y-100166905D01*
X161803566Y-100181437D01*
X161858424Y-100193098D01*
X161893530Y-100208728D01*
X161924566Y-100218143D01*
X161973884Y-100244504D01*
X162030500Y-100269711D01*
X162056822Y-100288835D01*
X162080232Y-100301348D01*
X162127988Y-100340540D01*
X162182887Y-100380427D01*
X162200711Y-100400223D01*
X162216675Y-100413324D01*
X162259572Y-100465594D01*
X162308924Y-100520405D01*
X162319292Y-100538363D01*
X162328651Y-100549767D01*
X162363273Y-100614542D01*
X162403104Y-100683530D01*
X162407685Y-100697630D01*
X162411856Y-100705433D01*
X162434852Y-100781242D01*
X162461311Y-100862672D01*
X162462242Y-100871532D01*
X162463094Y-100874340D01*
X162471385Y-100958520D01*
X162481000Y-101050000D01*
X162471382Y-101141501D01*
X162463094Y-101225659D01*
X162462242Y-101228466D01*
X162461311Y-101237328D01*
X162434848Y-101318771D01*
X162411856Y-101394566D01*
X162407686Y-101402366D01*
X162403104Y-101416470D01*
X162363266Y-101485470D01*
X162328651Y-101550232D01*
X162319294Y-101561633D01*
X162308924Y-101579595D01*
X162259563Y-101634415D01*
X162216675Y-101686675D01*
X162200714Y-101699773D01*
X162182887Y-101719573D01*
X162127977Y-101759467D01*
X162080232Y-101798651D01*
X162056827Y-101811161D01*
X162030500Y-101830289D01*
X161973873Y-101855500D01*
X161924566Y-101881856D01*
X161893537Y-101891268D01*
X161858424Y-101906902D01*
X161803555Y-101918564D01*
X161755659Y-101933094D01*
X161717532Y-101936849D01*
X161674180Y-101946064D01*
X161623973Y-101946064D01*
X161580000Y-101950395D01*
X161536027Y-101946064D01*
X161485820Y-101946064D01*
X161442467Y-101936849D01*
X161404340Y-101933094D01*
X161356441Y-101918563D01*
X161301576Y-101906902D01*
X161266464Y-101891269D01*
X161235433Y-101881856D01*
X161186120Y-101855498D01*
X161129500Y-101830289D01*
X161103175Y-101811163D01*
X161079767Y-101798651D01*
X161032013Y-101759460D01*
X160977113Y-101719573D01*
X160959287Y-101699776D01*
X160943324Y-101686675D01*
X160900425Y-101634402D01*
X160851076Y-101579595D01*
X160840708Y-101561637D01*
X160831348Y-101550232D01*
X160796719Y-101485447D01*
X160756896Y-101416470D01*
X160752315Y-101402371D01*
X160748143Y-101394566D01*
X160725136Y-101318725D01*
X160698689Y-101237328D01*
X160697758Y-101228471D01*
X160696905Y-101225659D01*
X160688601Y-101141349D01*
X160679000Y-101050000D01*
X160688598Y-100958672D01*
X160696905Y-100874340D01*
X160697758Y-100871527D01*
X160698689Y-100862672D01*
X160725132Y-100781288D01*
X160748143Y-100705433D01*
X160752315Y-100697626D01*
X160756896Y-100683530D01*
X160796712Y-100614565D01*
X160831348Y-100549767D01*
X160840710Y-100538359D01*
X160851076Y-100520405D01*
X160900416Y-100465607D01*
X160943324Y-100413324D01*
X160959291Y-100400219D01*
X160977113Y-100380427D01*
X161032002Y-100340546D01*
X161079767Y-100301348D01*
X161103180Y-100288833D01*
X161129500Y-100269711D01*
X161186109Y-100244506D01*
X161235433Y-100218143D01*
X161266471Y-100208727D01*
X161301576Y-100193098D01*
X161356430Y-100181438D01*
X161404340Y-100166905D01*
X161442476Y-100163148D01*
X161485820Y-100153936D01*
X161536016Y-100153936D01*
X161580000Y-100149604D01*
X161623983Y-100153936D01*
G37*
G36*
X164163983Y-100153936D02*
G01*
X164214180Y-100153936D01*
X164257524Y-100163149D01*
X164295659Y-100166905D01*
X164343566Y-100181437D01*
X164398424Y-100193098D01*
X164433530Y-100208728D01*
X164464566Y-100218143D01*
X164513884Y-100244504D01*
X164570500Y-100269711D01*
X164596822Y-100288835D01*
X164620232Y-100301348D01*
X164667988Y-100340540D01*
X164722887Y-100380427D01*
X164740711Y-100400223D01*
X164756675Y-100413324D01*
X164799572Y-100465594D01*
X164848924Y-100520405D01*
X164859292Y-100538363D01*
X164868651Y-100549767D01*
X164903273Y-100614542D01*
X164943104Y-100683530D01*
X164947685Y-100697630D01*
X164951856Y-100705433D01*
X164974852Y-100781242D01*
X165001311Y-100862672D01*
X165002242Y-100871532D01*
X165003094Y-100874340D01*
X165011385Y-100958520D01*
X165021000Y-101050000D01*
X165011382Y-101141501D01*
X165003094Y-101225659D01*
X165002242Y-101228466D01*
X165001311Y-101237328D01*
X164974848Y-101318771D01*
X164951856Y-101394566D01*
X164947686Y-101402366D01*
X164943104Y-101416470D01*
X164903266Y-101485470D01*
X164868651Y-101550232D01*
X164859294Y-101561633D01*
X164848924Y-101579595D01*
X164799563Y-101634415D01*
X164756675Y-101686675D01*
X164740714Y-101699773D01*
X164722887Y-101719573D01*
X164667977Y-101759467D01*
X164620232Y-101798651D01*
X164596827Y-101811161D01*
X164570500Y-101830289D01*
X164513873Y-101855500D01*
X164464566Y-101881856D01*
X164433537Y-101891268D01*
X164398424Y-101906902D01*
X164343555Y-101918564D01*
X164295659Y-101933094D01*
X164257532Y-101936849D01*
X164214180Y-101946064D01*
X164163973Y-101946064D01*
X164120000Y-101950395D01*
X164076027Y-101946064D01*
X164025820Y-101946064D01*
X163982467Y-101936849D01*
X163944340Y-101933094D01*
X163896441Y-101918563D01*
X163841576Y-101906902D01*
X163806464Y-101891269D01*
X163775433Y-101881856D01*
X163726120Y-101855498D01*
X163669500Y-101830289D01*
X163643175Y-101811163D01*
X163619767Y-101798651D01*
X163572013Y-101759460D01*
X163517113Y-101719573D01*
X163499287Y-101699776D01*
X163483324Y-101686675D01*
X163440425Y-101634402D01*
X163391076Y-101579595D01*
X163380708Y-101561637D01*
X163371348Y-101550232D01*
X163336719Y-101485447D01*
X163296896Y-101416470D01*
X163292315Y-101402371D01*
X163288143Y-101394566D01*
X163265136Y-101318725D01*
X163238689Y-101237328D01*
X163237758Y-101228471D01*
X163236905Y-101225659D01*
X163228601Y-101141349D01*
X163219000Y-101050000D01*
X163228598Y-100958672D01*
X163236905Y-100874340D01*
X163237758Y-100871527D01*
X163238689Y-100862672D01*
X163265132Y-100781288D01*
X163288143Y-100705433D01*
X163292315Y-100697626D01*
X163296896Y-100683530D01*
X163336712Y-100614565D01*
X163371348Y-100549767D01*
X163380710Y-100538359D01*
X163391076Y-100520405D01*
X163440416Y-100465607D01*
X163483324Y-100413324D01*
X163499291Y-100400219D01*
X163517113Y-100380427D01*
X163572002Y-100340546D01*
X163619767Y-100301348D01*
X163643180Y-100288833D01*
X163669500Y-100269711D01*
X163726109Y-100244506D01*
X163775433Y-100218143D01*
X163806471Y-100208727D01*
X163841576Y-100193098D01*
X163896430Y-100181438D01*
X163944340Y-100166905D01*
X163982476Y-100163148D01*
X164025820Y-100153936D01*
X164076016Y-100153936D01*
X164120000Y-100149604D01*
X164163983Y-100153936D01*
G37*
G36*
X166703983Y-100153936D02*
G01*
X166754180Y-100153936D01*
X166797524Y-100163149D01*
X166835659Y-100166905D01*
X166883566Y-100181437D01*
X166938424Y-100193098D01*
X166973530Y-100208728D01*
X167004566Y-100218143D01*
X167053884Y-100244504D01*
X167110500Y-100269711D01*
X167136822Y-100288835D01*
X167160232Y-100301348D01*
X167207988Y-100340540D01*
X167262887Y-100380427D01*
X167280711Y-100400223D01*
X167296675Y-100413324D01*
X167339572Y-100465594D01*
X167388924Y-100520405D01*
X167399292Y-100538363D01*
X167408651Y-100549767D01*
X167443273Y-100614542D01*
X167483104Y-100683530D01*
X167487685Y-100697630D01*
X167491856Y-100705433D01*
X167514852Y-100781242D01*
X167541311Y-100862672D01*
X167542242Y-100871532D01*
X167543094Y-100874340D01*
X167551385Y-100958520D01*
X167561000Y-101050000D01*
X167551382Y-101141501D01*
X167543094Y-101225659D01*
X167542242Y-101228466D01*
X167541311Y-101237328D01*
X167514848Y-101318771D01*
X167491856Y-101394566D01*
X167487686Y-101402366D01*
X167483104Y-101416470D01*
X167443266Y-101485470D01*
X167408651Y-101550232D01*
X167399294Y-101561633D01*
X167388924Y-101579595D01*
X167339563Y-101634415D01*
X167296675Y-101686675D01*
X167280714Y-101699773D01*
X167262887Y-101719573D01*
X167207977Y-101759467D01*
X167160232Y-101798651D01*
X167136827Y-101811161D01*
X167110500Y-101830289D01*
X167053873Y-101855500D01*
X167004566Y-101881856D01*
X166973537Y-101891268D01*
X166938424Y-101906902D01*
X166883555Y-101918564D01*
X166835659Y-101933094D01*
X166797532Y-101936849D01*
X166754180Y-101946064D01*
X166703973Y-101946064D01*
X166660000Y-101950395D01*
X166616027Y-101946064D01*
X166565820Y-101946064D01*
X166522467Y-101936849D01*
X166484340Y-101933094D01*
X166436441Y-101918563D01*
X166381576Y-101906902D01*
X166346464Y-101891269D01*
X166315433Y-101881856D01*
X166266120Y-101855498D01*
X166209500Y-101830289D01*
X166183175Y-101811163D01*
X166159767Y-101798651D01*
X166112013Y-101759460D01*
X166057113Y-101719573D01*
X166039287Y-101699776D01*
X166023324Y-101686675D01*
X165980425Y-101634402D01*
X165931076Y-101579595D01*
X165920708Y-101561637D01*
X165911348Y-101550232D01*
X165876719Y-101485447D01*
X165836896Y-101416470D01*
X165832315Y-101402371D01*
X165828143Y-101394566D01*
X165805136Y-101318725D01*
X165778689Y-101237328D01*
X165777758Y-101228471D01*
X165776905Y-101225659D01*
X165768601Y-101141349D01*
X165759000Y-101050000D01*
X165768598Y-100958672D01*
X165776905Y-100874340D01*
X165777758Y-100871527D01*
X165778689Y-100862672D01*
X165805132Y-100781288D01*
X165828143Y-100705433D01*
X165832315Y-100697626D01*
X165836896Y-100683530D01*
X165876712Y-100614565D01*
X165911348Y-100549767D01*
X165920710Y-100538359D01*
X165931076Y-100520405D01*
X165980416Y-100465607D01*
X166023324Y-100413324D01*
X166039291Y-100400219D01*
X166057113Y-100380427D01*
X166112002Y-100340546D01*
X166159767Y-100301348D01*
X166183180Y-100288833D01*
X166209500Y-100269711D01*
X166266109Y-100244506D01*
X166315433Y-100218143D01*
X166346471Y-100208727D01*
X166381576Y-100193098D01*
X166436430Y-100181438D01*
X166484340Y-100166905D01*
X166522476Y-100163148D01*
X166565820Y-100153936D01*
X166616016Y-100153936D01*
X166660000Y-100149604D01*
X166703983Y-100153936D01*
G37*
G36*
X169243983Y-100153936D02*
G01*
X169294180Y-100153936D01*
X169337524Y-100163149D01*
X169375659Y-100166905D01*
X169423566Y-100181437D01*
X169478424Y-100193098D01*
X169513530Y-100208728D01*
X169544566Y-100218143D01*
X169593884Y-100244504D01*
X169650500Y-100269711D01*
X169676822Y-100288835D01*
X169700232Y-100301348D01*
X169747988Y-100340540D01*
X169802887Y-100380427D01*
X169820711Y-100400223D01*
X169836675Y-100413324D01*
X169879572Y-100465594D01*
X169928924Y-100520405D01*
X169939292Y-100538363D01*
X169948651Y-100549767D01*
X169983273Y-100614542D01*
X170023104Y-100683530D01*
X170027685Y-100697630D01*
X170031856Y-100705433D01*
X170054852Y-100781242D01*
X170081311Y-100862672D01*
X170082242Y-100871532D01*
X170083094Y-100874340D01*
X170091384Y-100958513D01*
X170101000Y-101050000D01*
X170091383Y-101141494D01*
X170083094Y-101225659D01*
X170082242Y-101228466D01*
X170081311Y-101237328D01*
X170054848Y-101318771D01*
X170031856Y-101394566D01*
X170027686Y-101402366D01*
X170023104Y-101416470D01*
X169983266Y-101485470D01*
X169948651Y-101550232D01*
X169939294Y-101561633D01*
X169928924Y-101579595D01*
X169879563Y-101634415D01*
X169836675Y-101686675D01*
X169820714Y-101699773D01*
X169802887Y-101719573D01*
X169747977Y-101759467D01*
X169700232Y-101798651D01*
X169676827Y-101811161D01*
X169650500Y-101830289D01*
X169593873Y-101855500D01*
X169544566Y-101881856D01*
X169513537Y-101891268D01*
X169478424Y-101906902D01*
X169423555Y-101918564D01*
X169375659Y-101933094D01*
X169337532Y-101936849D01*
X169294180Y-101946064D01*
X169243973Y-101946064D01*
X169200000Y-101950395D01*
X169156027Y-101946064D01*
X169105820Y-101946064D01*
X169062467Y-101936849D01*
X169024340Y-101933094D01*
X168976441Y-101918563D01*
X168921576Y-101906902D01*
X168886464Y-101891269D01*
X168855433Y-101881856D01*
X168806120Y-101855498D01*
X168749500Y-101830289D01*
X168723175Y-101811163D01*
X168699767Y-101798651D01*
X168652013Y-101759460D01*
X168597113Y-101719573D01*
X168579287Y-101699776D01*
X168563324Y-101686675D01*
X168520425Y-101634402D01*
X168471076Y-101579595D01*
X168460708Y-101561637D01*
X168451348Y-101550232D01*
X168416719Y-101485447D01*
X168376896Y-101416470D01*
X168372315Y-101402371D01*
X168368143Y-101394566D01*
X168345136Y-101318725D01*
X168318689Y-101237328D01*
X168317758Y-101228471D01*
X168316905Y-101225659D01*
X168308600Y-101141342D01*
X168299000Y-101050000D01*
X168308599Y-100958664D01*
X168316905Y-100874340D01*
X168317758Y-100871527D01*
X168318689Y-100862672D01*
X168345132Y-100781288D01*
X168368143Y-100705433D01*
X168372315Y-100697626D01*
X168376896Y-100683530D01*
X168416712Y-100614565D01*
X168451348Y-100549767D01*
X168460710Y-100538359D01*
X168471076Y-100520405D01*
X168520416Y-100465607D01*
X168563324Y-100413324D01*
X168579291Y-100400219D01*
X168597113Y-100380427D01*
X168652002Y-100340546D01*
X168699767Y-100301348D01*
X168723180Y-100288833D01*
X168749500Y-100269711D01*
X168806109Y-100244506D01*
X168855433Y-100218143D01*
X168886471Y-100208727D01*
X168921576Y-100193098D01*
X168976430Y-100181438D01*
X169024340Y-100166905D01*
X169062476Y-100163148D01*
X169105820Y-100153936D01*
X169156016Y-100153936D01*
X169200000Y-100149604D01*
X169243983Y-100153936D01*
G37*
G36*
X171783983Y-100153936D02*
G01*
X171834180Y-100153936D01*
X171877524Y-100163149D01*
X171915659Y-100166905D01*
X171963566Y-100181437D01*
X172018424Y-100193098D01*
X172053530Y-100208728D01*
X172084566Y-100218143D01*
X172133884Y-100244504D01*
X172190500Y-100269711D01*
X172216822Y-100288835D01*
X172240232Y-100301348D01*
X172287988Y-100340540D01*
X172342887Y-100380427D01*
X172360711Y-100400223D01*
X172376675Y-100413324D01*
X172419572Y-100465594D01*
X172468924Y-100520405D01*
X172479292Y-100538363D01*
X172488651Y-100549767D01*
X172523273Y-100614542D01*
X172563104Y-100683530D01*
X172567685Y-100697630D01*
X172571856Y-100705433D01*
X172594852Y-100781242D01*
X172621311Y-100862672D01*
X172622242Y-100871532D01*
X172623094Y-100874340D01*
X172631385Y-100958520D01*
X172641000Y-101050000D01*
X172631382Y-101141501D01*
X172623094Y-101225659D01*
X172622242Y-101228466D01*
X172621311Y-101237328D01*
X172594848Y-101318771D01*
X172571856Y-101394566D01*
X172567686Y-101402366D01*
X172563104Y-101416470D01*
X172523266Y-101485470D01*
X172488651Y-101550232D01*
X172479294Y-101561633D01*
X172468924Y-101579595D01*
X172419563Y-101634415D01*
X172376675Y-101686675D01*
X172360714Y-101699773D01*
X172342887Y-101719573D01*
X172287977Y-101759467D01*
X172240232Y-101798651D01*
X172216827Y-101811161D01*
X172190500Y-101830289D01*
X172133873Y-101855500D01*
X172084566Y-101881856D01*
X172053537Y-101891268D01*
X172018424Y-101906902D01*
X171963555Y-101918564D01*
X171915659Y-101933094D01*
X171877533Y-101936849D01*
X171834180Y-101946064D01*
X171783972Y-101946064D01*
X171739999Y-101950395D01*
X171696026Y-101946064D01*
X171645820Y-101946064D01*
X171602467Y-101936849D01*
X171564340Y-101933094D01*
X171516441Y-101918563D01*
X171461576Y-101906902D01*
X171426464Y-101891269D01*
X171395433Y-101881856D01*
X171346120Y-101855498D01*
X171289500Y-101830289D01*
X171263175Y-101811163D01*
X171239767Y-101798651D01*
X171192013Y-101759460D01*
X171137113Y-101719573D01*
X171119287Y-101699776D01*
X171103324Y-101686675D01*
X171060425Y-101634402D01*
X171011076Y-101579595D01*
X171000708Y-101561637D01*
X170991348Y-101550232D01*
X170956719Y-101485447D01*
X170916896Y-101416470D01*
X170912315Y-101402371D01*
X170908143Y-101394566D01*
X170885136Y-101318725D01*
X170858689Y-101237328D01*
X170857758Y-101228471D01*
X170856905Y-101225659D01*
X170848601Y-101141349D01*
X170839000Y-101050000D01*
X170848598Y-100958672D01*
X170856905Y-100874340D01*
X170857758Y-100871527D01*
X170858689Y-100862672D01*
X170885132Y-100781288D01*
X170908143Y-100705433D01*
X170912315Y-100697626D01*
X170916896Y-100683530D01*
X170956712Y-100614565D01*
X170991348Y-100549767D01*
X171000710Y-100538359D01*
X171011076Y-100520405D01*
X171060416Y-100465607D01*
X171103324Y-100413324D01*
X171119291Y-100400219D01*
X171137113Y-100380427D01*
X171192002Y-100340546D01*
X171239767Y-100301348D01*
X171263180Y-100288833D01*
X171289500Y-100269711D01*
X171346109Y-100244506D01*
X171395433Y-100218143D01*
X171426471Y-100208727D01*
X171461576Y-100193098D01*
X171516430Y-100181438D01*
X171564340Y-100166905D01*
X171602476Y-100163148D01*
X171645820Y-100153936D01*
X171696016Y-100153936D01*
X171739999Y-100149604D01*
X171783983Y-100153936D01*
G37*
G36*
X174323983Y-100153936D02*
G01*
X174374180Y-100153936D01*
X174417524Y-100163149D01*
X174455659Y-100166905D01*
X174503566Y-100181437D01*
X174558424Y-100193098D01*
X174593530Y-100208728D01*
X174624566Y-100218143D01*
X174673884Y-100244504D01*
X174730500Y-100269711D01*
X174756822Y-100288835D01*
X174780232Y-100301348D01*
X174827988Y-100340540D01*
X174882887Y-100380427D01*
X174900711Y-100400223D01*
X174916675Y-100413324D01*
X174959572Y-100465594D01*
X175008924Y-100520405D01*
X175019292Y-100538363D01*
X175028651Y-100549767D01*
X175063273Y-100614542D01*
X175103104Y-100683530D01*
X175107685Y-100697630D01*
X175111856Y-100705433D01*
X175134852Y-100781242D01*
X175161311Y-100862672D01*
X175162242Y-100871532D01*
X175163094Y-100874340D01*
X175171385Y-100958520D01*
X175181000Y-101050000D01*
X175171382Y-101141501D01*
X175163094Y-101225659D01*
X175162242Y-101228466D01*
X175161311Y-101237328D01*
X175134848Y-101318771D01*
X175111856Y-101394566D01*
X175107686Y-101402366D01*
X175103104Y-101416470D01*
X175063266Y-101485470D01*
X175028651Y-101550232D01*
X175019294Y-101561633D01*
X175008924Y-101579595D01*
X174959563Y-101634415D01*
X174916675Y-101686675D01*
X174900714Y-101699773D01*
X174882887Y-101719573D01*
X174827977Y-101759467D01*
X174780232Y-101798651D01*
X174756827Y-101811161D01*
X174730500Y-101830289D01*
X174673873Y-101855500D01*
X174624566Y-101881856D01*
X174593537Y-101891268D01*
X174558424Y-101906902D01*
X174503555Y-101918564D01*
X174455659Y-101933094D01*
X174417533Y-101936849D01*
X174374180Y-101946064D01*
X174323972Y-101946064D01*
X174279999Y-101950395D01*
X174236026Y-101946064D01*
X174185820Y-101946064D01*
X174142467Y-101936849D01*
X174104340Y-101933094D01*
X174056441Y-101918563D01*
X174001576Y-101906902D01*
X173966464Y-101891269D01*
X173935433Y-101881856D01*
X173886120Y-101855498D01*
X173829500Y-101830289D01*
X173803175Y-101811163D01*
X173779767Y-101798651D01*
X173732013Y-101759460D01*
X173677113Y-101719573D01*
X173659287Y-101699776D01*
X173643324Y-101686675D01*
X173600425Y-101634402D01*
X173551076Y-101579595D01*
X173540708Y-101561637D01*
X173531348Y-101550232D01*
X173496719Y-101485447D01*
X173456896Y-101416470D01*
X173452315Y-101402371D01*
X173448143Y-101394566D01*
X173425136Y-101318725D01*
X173398689Y-101237328D01*
X173397758Y-101228471D01*
X173396905Y-101225659D01*
X173388601Y-101141349D01*
X173379000Y-101050000D01*
X173388598Y-100958672D01*
X173396905Y-100874340D01*
X173397758Y-100871527D01*
X173398689Y-100862672D01*
X173425132Y-100781288D01*
X173448143Y-100705433D01*
X173452315Y-100697626D01*
X173456896Y-100683530D01*
X173496712Y-100614565D01*
X173531348Y-100549767D01*
X173540710Y-100538359D01*
X173551076Y-100520405D01*
X173600416Y-100465607D01*
X173643324Y-100413324D01*
X173659291Y-100400219D01*
X173677113Y-100380427D01*
X173732002Y-100340546D01*
X173779767Y-100301348D01*
X173803180Y-100288833D01*
X173829500Y-100269711D01*
X173886109Y-100244506D01*
X173935433Y-100218143D01*
X173966471Y-100208727D01*
X174001576Y-100193098D01*
X174056430Y-100181438D01*
X174104340Y-100166905D01*
X174142476Y-100163148D01*
X174185820Y-100153936D01*
X174236016Y-100153936D01*
X174279999Y-100149604D01*
X174323983Y-100153936D01*
G37*
G36*
X176863983Y-100153936D02*
G01*
X176914180Y-100153936D01*
X176957524Y-100163149D01*
X176995659Y-100166905D01*
X177043566Y-100181437D01*
X177098424Y-100193098D01*
X177133530Y-100208728D01*
X177164566Y-100218143D01*
X177213884Y-100244504D01*
X177270500Y-100269711D01*
X177296822Y-100288835D01*
X177320232Y-100301348D01*
X177367988Y-100340540D01*
X177422887Y-100380427D01*
X177440711Y-100400223D01*
X177456675Y-100413324D01*
X177499572Y-100465594D01*
X177548924Y-100520405D01*
X177559292Y-100538363D01*
X177568651Y-100549767D01*
X177603273Y-100614542D01*
X177643104Y-100683530D01*
X177647685Y-100697630D01*
X177651856Y-100705433D01*
X177674852Y-100781242D01*
X177701311Y-100862672D01*
X177702242Y-100871532D01*
X177703094Y-100874340D01*
X177711385Y-100958520D01*
X177721000Y-101050000D01*
X177711382Y-101141501D01*
X177703094Y-101225659D01*
X177702242Y-101228466D01*
X177701311Y-101237328D01*
X177674848Y-101318771D01*
X177651856Y-101394566D01*
X177647686Y-101402366D01*
X177643104Y-101416470D01*
X177603266Y-101485470D01*
X177568651Y-101550232D01*
X177559294Y-101561633D01*
X177548924Y-101579595D01*
X177499563Y-101634415D01*
X177456675Y-101686675D01*
X177440714Y-101699773D01*
X177422887Y-101719573D01*
X177367977Y-101759467D01*
X177320232Y-101798651D01*
X177296827Y-101811161D01*
X177270500Y-101830289D01*
X177213873Y-101855500D01*
X177164566Y-101881856D01*
X177133537Y-101891268D01*
X177098424Y-101906902D01*
X177043555Y-101918564D01*
X176995659Y-101933094D01*
X176957533Y-101936849D01*
X176914180Y-101946064D01*
X176863972Y-101946064D01*
X176819999Y-101950395D01*
X176776026Y-101946064D01*
X176725820Y-101946064D01*
X176682467Y-101936849D01*
X176644340Y-101933094D01*
X176596441Y-101918563D01*
X176541576Y-101906902D01*
X176506464Y-101891269D01*
X176475433Y-101881856D01*
X176426120Y-101855498D01*
X176369500Y-101830289D01*
X176343175Y-101811163D01*
X176319767Y-101798651D01*
X176272013Y-101759460D01*
X176217113Y-101719573D01*
X176199287Y-101699776D01*
X176183324Y-101686675D01*
X176140425Y-101634402D01*
X176091076Y-101579595D01*
X176080708Y-101561637D01*
X176071348Y-101550232D01*
X176036719Y-101485447D01*
X175996896Y-101416470D01*
X175992315Y-101402371D01*
X175988143Y-101394566D01*
X175965136Y-101318725D01*
X175938689Y-101237328D01*
X175937758Y-101228471D01*
X175936905Y-101225659D01*
X175928601Y-101141349D01*
X175919000Y-101050000D01*
X175928598Y-100958672D01*
X175936905Y-100874340D01*
X175937758Y-100871527D01*
X175938689Y-100862672D01*
X175965132Y-100781288D01*
X175988143Y-100705433D01*
X175992315Y-100697626D01*
X175996896Y-100683530D01*
X176036712Y-100614565D01*
X176071348Y-100549767D01*
X176080710Y-100538359D01*
X176091076Y-100520405D01*
X176140416Y-100465607D01*
X176183324Y-100413324D01*
X176199291Y-100400219D01*
X176217113Y-100380427D01*
X176272002Y-100340546D01*
X176319767Y-100301348D01*
X176343180Y-100288833D01*
X176369500Y-100269711D01*
X176426109Y-100244506D01*
X176475433Y-100218143D01*
X176506471Y-100208727D01*
X176541576Y-100193098D01*
X176596430Y-100181438D01*
X176644340Y-100166905D01*
X176682476Y-100163148D01*
X176725820Y-100153936D01*
X176776016Y-100153936D01*
X176819999Y-100149604D01*
X176863983Y-100153936D01*
G37*
G36*
X179403983Y-100153936D02*
G01*
X179454180Y-100153936D01*
X179497524Y-100163149D01*
X179535659Y-100166905D01*
X179583566Y-100181437D01*
X179638424Y-100193098D01*
X179673530Y-100208728D01*
X179704566Y-100218143D01*
X179753884Y-100244504D01*
X179810500Y-100269711D01*
X179836822Y-100288835D01*
X179860232Y-100301348D01*
X179907988Y-100340540D01*
X179962887Y-100380427D01*
X179980711Y-100400223D01*
X179996675Y-100413324D01*
X180039572Y-100465594D01*
X180088924Y-100520405D01*
X180099292Y-100538363D01*
X180108651Y-100549767D01*
X180143273Y-100614542D01*
X180183104Y-100683530D01*
X180187685Y-100697630D01*
X180191856Y-100705433D01*
X180214852Y-100781242D01*
X180241311Y-100862672D01*
X180242242Y-100871532D01*
X180243094Y-100874340D01*
X180251385Y-100958520D01*
X180261000Y-101050000D01*
X180251382Y-101141501D01*
X180243094Y-101225659D01*
X180242242Y-101228466D01*
X180241311Y-101237328D01*
X180214848Y-101318771D01*
X180191856Y-101394566D01*
X180187686Y-101402366D01*
X180183104Y-101416470D01*
X180143266Y-101485470D01*
X180108651Y-101550232D01*
X180099294Y-101561633D01*
X180088924Y-101579595D01*
X180039563Y-101634415D01*
X179996675Y-101686675D01*
X179980714Y-101699773D01*
X179962887Y-101719573D01*
X179907977Y-101759467D01*
X179860232Y-101798651D01*
X179836827Y-101811161D01*
X179810500Y-101830289D01*
X179753873Y-101855500D01*
X179704566Y-101881856D01*
X179673537Y-101891268D01*
X179638424Y-101906902D01*
X179583555Y-101918564D01*
X179535659Y-101933094D01*
X179497532Y-101936849D01*
X179454180Y-101946064D01*
X179403973Y-101946064D01*
X179360000Y-101950395D01*
X179316027Y-101946064D01*
X179265820Y-101946064D01*
X179222467Y-101936849D01*
X179184340Y-101933094D01*
X179136441Y-101918563D01*
X179081576Y-101906902D01*
X179046464Y-101891269D01*
X179015433Y-101881856D01*
X178966120Y-101855498D01*
X178909500Y-101830289D01*
X178883175Y-101811163D01*
X178859767Y-101798651D01*
X178812013Y-101759460D01*
X178757113Y-101719573D01*
X178739287Y-101699776D01*
X178723324Y-101686675D01*
X178680425Y-101634402D01*
X178631076Y-101579595D01*
X178620708Y-101561637D01*
X178611348Y-101550232D01*
X178576719Y-101485447D01*
X178536896Y-101416470D01*
X178532315Y-101402371D01*
X178528143Y-101394566D01*
X178505136Y-101318725D01*
X178478689Y-101237328D01*
X178477758Y-101228471D01*
X178476905Y-101225659D01*
X178468601Y-101141349D01*
X178459000Y-101050000D01*
X178468598Y-100958672D01*
X178476905Y-100874340D01*
X178477758Y-100871527D01*
X178478689Y-100862672D01*
X178505132Y-100781288D01*
X178528143Y-100705433D01*
X178532315Y-100697626D01*
X178536896Y-100683530D01*
X178576712Y-100614565D01*
X178611348Y-100549767D01*
X178620710Y-100538359D01*
X178631076Y-100520405D01*
X178680416Y-100465607D01*
X178723324Y-100413324D01*
X178739291Y-100400219D01*
X178757113Y-100380427D01*
X178812002Y-100340546D01*
X178859767Y-100301348D01*
X178883180Y-100288833D01*
X178909500Y-100269711D01*
X178966109Y-100244506D01*
X179015433Y-100218143D01*
X179046471Y-100208727D01*
X179081576Y-100193098D01*
X179136430Y-100181438D01*
X179184340Y-100166905D01*
X179222476Y-100163148D01*
X179265820Y-100153936D01*
X179316016Y-100153936D01*
X179360000Y-100149604D01*
X179403983Y-100153936D01*
G37*
G36*
X181943983Y-100153936D02*
G01*
X181994180Y-100153936D01*
X182037524Y-100163149D01*
X182075659Y-100166905D01*
X182123566Y-100181437D01*
X182178424Y-100193098D01*
X182213530Y-100208728D01*
X182244566Y-100218143D01*
X182293884Y-100244504D01*
X182350500Y-100269711D01*
X182376822Y-100288835D01*
X182400232Y-100301348D01*
X182447988Y-100340540D01*
X182502887Y-100380427D01*
X182520711Y-100400223D01*
X182536675Y-100413324D01*
X182579572Y-100465594D01*
X182628924Y-100520405D01*
X182639292Y-100538363D01*
X182648651Y-100549767D01*
X182683273Y-100614542D01*
X182723104Y-100683530D01*
X182727685Y-100697630D01*
X182731856Y-100705433D01*
X182754852Y-100781242D01*
X182781311Y-100862672D01*
X182782242Y-100871532D01*
X182783094Y-100874340D01*
X182791385Y-100958520D01*
X182801000Y-101050000D01*
X182791382Y-101141501D01*
X182783094Y-101225659D01*
X182782242Y-101228466D01*
X182781311Y-101237328D01*
X182754848Y-101318771D01*
X182731856Y-101394566D01*
X182727686Y-101402366D01*
X182723104Y-101416470D01*
X182683266Y-101485470D01*
X182648651Y-101550232D01*
X182639294Y-101561633D01*
X182628924Y-101579595D01*
X182579563Y-101634415D01*
X182536675Y-101686675D01*
X182520714Y-101699773D01*
X182502887Y-101719573D01*
X182447977Y-101759467D01*
X182400232Y-101798651D01*
X182376827Y-101811161D01*
X182350500Y-101830289D01*
X182293873Y-101855500D01*
X182244566Y-101881856D01*
X182213537Y-101891268D01*
X182178424Y-101906902D01*
X182123555Y-101918564D01*
X182075659Y-101933094D01*
X182037532Y-101936849D01*
X181994180Y-101946064D01*
X181943973Y-101946064D01*
X181900000Y-101950395D01*
X181856027Y-101946064D01*
X181805820Y-101946064D01*
X181762467Y-101936849D01*
X181724340Y-101933094D01*
X181676441Y-101918563D01*
X181621576Y-101906902D01*
X181586464Y-101891269D01*
X181555433Y-101881856D01*
X181506120Y-101855498D01*
X181449500Y-101830289D01*
X181423175Y-101811163D01*
X181399767Y-101798651D01*
X181352013Y-101759460D01*
X181297113Y-101719573D01*
X181279287Y-101699776D01*
X181263324Y-101686675D01*
X181220425Y-101634402D01*
X181171076Y-101579595D01*
X181160708Y-101561637D01*
X181151348Y-101550232D01*
X181116719Y-101485447D01*
X181076896Y-101416470D01*
X181072315Y-101402371D01*
X181068143Y-101394566D01*
X181045136Y-101318725D01*
X181018689Y-101237328D01*
X181017758Y-101228471D01*
X181016905Y-101225659D01*
X181008601Y-101141349D01*
X180999000Y-101050000D01*
X181008598Y-100958672D01*
X181016905Y-100874340D01*
X181017758Y-100871527D01*
X181018689Y-100862672D01*
X181045132Y-100781288D01*
X181068143Y-100705433D01*
X181072315Y-100697626D01*
X181076896Y-100683530D01*
X181116712Y-100614565D01*
X181151348Y-100549767D01*
X181160710Y-100538359D01*
X181171076Y-100520405D01*
X181220416Y-100465607D01*
X181263324Y-100413324D01*
X181279291Y-100400219D01*
X181297113Y-100380427D01*
X181352002Y-100340546D01*
X181399767Y-100301348D01*
X181423180Y-100288833D01*
X181449500Y-100269711D01*
X181506109Y-100244506D01*
X181555433Y-100218143D01*
X181586471Y-100208727D01*
X181621576Y-100193098D01*
X181676430Y-100181438D01*
X181724340Y-100166905D01*
X181762476Y-100163148D01*
X181805820Y-100153936D01*
X181856016Y-100153936D01*
X181900000Y-100149604D01*
X181943983Y-100153936D01*
G37*
G36*
X184483983Y-100153936D02*
G01*
X184534180Y-100153936D01*
X184577524Y-100163149D01*
X184615659Y-100166905D01*
X184663566Y-100181437D01*
X184718424Y-100193098D01*
X184753530Y-100208728D01*
X184784566Y-100218143D01*
X184833884Y-100244504D01*
X184890500Y-100269711D01*
X184916822Y-100288835D01*
X184940232Y-100301348D01*
X184987988Y-100340540D01*
X185042887Y-100380427D01*
X185060711Y-100400223D01*
X185076675Y-100413324D01*
X185119572Y-100465594D01*
X185168924Y-100520405D01*
X185179292Y-100538363D01*
X185188651Y-100549767D01*
X185223273Y-100614542D01*
X185263104Y-100683530D01*
X185267685Y-100697630D01*
X185271856Y-100705433D01*
X185294852Y-100781242D01*
X185321311Y-100862672D01*
X185322242Y-100871532D01*
X185323094Y-100874340D01*
X185331385Y-100958520D01*
X185341000Y-101050000D01*
X185331382Y-101141501D01*
X185323094Y-101225659D01*
X185322242Y-101228466D01*
X185321311Y-101237328D01*
X185294848Y-101318771D01*
X185271856Y-101394566D01*
X185267686Y-101402366D01*
X185263104Y-101416470D01*
X185223266Y-101485470D01*
X185188651Y-101550232D01*
X185179294Y-101561633D01*
X185168924Y-101579595D01*
X185119563Y-101634415D01*
X185076675Y-101686675D01*
X185060714Y-101699773D01*
X185042887Y-101719573D01*
X184987977Y-101759467D01*
X184940232Y-101798651D01*
X184916827Y-101811161D01*
X184890500Y-101830289D01*
X184833873Y-101855500D01*
X184784566Y-101881856D01*
X184753537Y-101891268D01*
X184718424Y-101906902D01*
X184663555Y-101918564D01*
X184615659Y-101933094D01*
X184577532Y-101936849D01*
X184534180Y-101946064D01*
X184483973Y-101946064D01*
X184440000Y-101950395D01*
X184396027Y-101946064D01*
X184345820Y-101946064D01*
X184302467Y-101936849D01*
X184264340Y-101933094D01*
X184216441Y-101918563D01*
X184161576Y-101906902D01*
X184126464Y-101891269D01*
X184095433Y-101881856D01*
X184046120Y-101855498D01*
X183989500Y-101830289D01*
X183963175Y-101811163D01*
X183939767Y-101798651D01*
X183892013Y-101759460D01*
X183837113Y-101719573D01*
X183819287Y-101699776D01*
X183803324Y-101686675D01*
X183760425Y-101634402D01*
X183711076Y-101579595D01*
X183700708Y-101561637D01*
X183691348Y-101550232D01*
X183656719Y-101485447D01*
X183616896Y-101416470D01*
X183612315Y-101402371D01*
X183608143Y-101394566D01*
X183585136Y-101318725D01*
X183558689Y-101237328D01*
X183557758Y-101228471D01*
X183556905Y-101225659D01*
X183548601Y-101141349D01*
X183539000Y-101050000D01*
X183548598Y-100958672D01*
X183556905Y-100874340D01*
X183557758Y-100871527D01*
X183558689Y-100862672D01*
X183585132Y-100781288D01*
X183608143Y-100705433D01*
X183612315Y-100697626D01*
X183616896Y-100683530D01*
X183656712Y-100614565D01*
X183691348Y-100549767D01*
X183700710Y-100538359D01*
X183711076Y-100520405D01*
X183760416Y-100465607D01*
X183803324Y-100413324D01*
X183819291Y-100400219D01*
X183837113Y-100380427D01*
X183892002Y-100340546D01*
X183939767Y-100301348D01*
X183963180Y-100288833D01*
X183989500Y-100269711D01*
X184046109Y-100244506D01*
X184095433Y-100218143D01*
X184126471Y-100208727D01*
X184161576Y-100193098D01*
X184216430Y-100181438D01*
X184264340Y-100166905D01*
X184302476Y-100163148D01*
X184345820Y-100153936D01*
X184396016Y-100153936D01*
X184440000Y-100149604D01*
X184483983Y-100153936D01*
G37*
G36*
X187023983Y-100153936D02*
G01*
X187074180Y-100153936D01*
X187117524Y-100163149D01*
X187155659Y-100166905D01*
X187203566Y-100181437D01*
X187258424Y-100193098D01*
X187293530Y-100208728D01*
X187324566Y-100218143D01*
X187373884Y-100244504D01*
X187430500Y-100269711D01*
X187456822Y-100288835D01*
X187480232Y-100301348D01*
X187527988Y-100340540D01*
X187582887Y-100380427D01*
X187600711Y-100400223D01*
X187616675Y-100413324D01*
X187659572Y-100465594D01*
X187708924Y-100520405D01*
X187719292Y-100538363D01*
X187728651Y-100549767D01*
X187763273Y-100614542D01*
X187803104Y-100683530D01*
X187807685Y-100697630D01*
X187811856Y-100705433D01*
X187834852Y-100781242D01*
X187861311Y-100862672D01*
X187862242Y-100871532D01*
X187863094Y-100874340D01*
X187871385Y-100958520D01*
X187881000Y-101050000D01*
X187871382Y-101141501D01*
X187863094Y-101225659D01*
X187862242Y-101228466D01*
X187861311Y-101237328D01*
X187834848Y-101318771D01*
X187811856Y-101394566D01*
X187807686Y-101402366D01*
X187803104Y-101416470D01*
X187763266Y-101485470D01*
X187728651Y-101550232D01*
X187719294Y-101561633D01*
X187708924Y-101579595D01*
X187659563Y-101634415D01*
X187616675Y-101686675D01*
X187600714Y-101699773D01*
X187582887Y-101719573D01*
X187527977Y-101759467D01*
X187480232Y-101798651D01*
X187456827Y-101811161D01*
X187430500Y-101830289D01*
X187373873Y-101855500D01*
X187324566Y-101881856D01*
X187293537Y-101891268D01*
X187258424Y-101906902D01*
X187203555Y-101918564D01*
X187155659Y-101933094D01*
X187117532Y-101936849D01*
X187074180Y-101946064D01*
X187023973Y-101946064D01*
X186980000Y-101950395D01*
X186936027Y-101946064D01*
X186885820Y-101946064D01*
X186842467Y-101936849D01*
X186804340Y-101933094D01*
X186756441Y-101918563D01*
X186701576Y-101906902D01*
X186666464Y-101891269D01*
X186635433Y-101881856D01*
X186586120Y-101855498D01*
X186529500Y-101830289D01*
X186503175Y-101811163D01*
X186479767Y-101798651D01*
X186432013Y-101759460D01*
X186377113Y-101719573D01*
X186359287Y-101699776D01*
X186343324Y-101686675D01*
X186300425Y-101634402D01*
X186251076Y-101579595D01*
X186240708Y-101561637D01*
X186231348Y-101550232D01*
X186196719Y-101485447D01*
X186156896Y-101416470D01*
X186152315Y-101402371D01*
X186148143Y-101394566D01*
X186125136Y-101318725D01*
X186098689Y-101237328D01*
X186097758Y-101228471D01*
X186096905Y-101225659D01*
X186088601Y-101141349D01*
X186079000Y-101050000D01*
X186088598Y-100958672D01*
X186096905Y-100874340D01*
X186097758Y-100871527D01*
X186098689Y-100862672D01*
X186125132Y-100781288D01*
X186148143Y-100705433D01*
X186152315Y-100697626D01*
X186156896Y-100683530D01*
X186196712Y-100614565D01*
X186231348Y-100549767D01*
X186240710Y-100538359D01*
X186251076Y-100520405D01*
X186300416Y-100465607D01*
X186343324Y-100413324D01*
X186359291Y-100400219D01*
X186377113Y-100380427D01*
X186432002Y-100340546D01*
X186479767Y-100301348D01*
X186503180Y-100288833D01*
X186529500Y-100269711D01*
X186586109Y-100244506D01*
X186635433Y-100218143D01*
X186666471Y-100208727D01*
X186701576Y-100193098D01*
X186756430Y-100181438D01*
X186804340Y-100166905D01*
X186842476Y-100163148D01*
X186885820Y-100153936D01*
X186936016Y-100153936D01*
X186980000Y-100149604D01*
X187023983Y-100153936D01*
G37*
G36*
X189563983Y-100153936D02*
G01*
X189614180Y-100153936D01*
X189657524Y-100163149D01*
X189695659Y-100166905D01*
X189743566Y-100181437D01*
X189798424Y-100193098D01*
X189833530Y-100208728D01*
X189864566Y-100218143D01*
X189913884Y-100244504D01*
X189970500Y-100269711D01*
X189996822Y-100288835D01*
X190020232Y-100301348D01*
X190067988Y-100340540D01*
X190122887Y-100380427D01*
X190140711Y-100400223D01*
X190156675Y-100413324D01*
X190199572Y-100465594D01*
X190248924Y-100520405D01*
X190259292Y-100538363D01*
X190268651Y-100549767D01*
X190303273Y-100614542D01*
X190343104Y-100683530D01*
X190347685Y-100697630D01*
X190351856Y-100705433D01*
X190374852Y-100781242D01*
X190401311Y-100862672D01*
X190402242Y-100871532D01*
X190403094Y-100874340D01*
X190411384Y-100958513D01*
X190421000Y-101050000D01*
X190411383Y-101141494D01*
X190403094Y-101225659D01*
X190402242Y-101228466D01*
X190401311Y-101237328D01*
X190374848Y-101318771D01*
X190351856Y-101394566D01*
X190347686Y-101402366D01*
X190343104Y-101416470D01*
X190303266Y-101485470D01*
X190268651Y-101550232D01*
X190259294Y-101561633D01*
X190248924Y-101579595D01*
X190199563Y-101634415D01*
X190156675Y-101686675D01*
X190140714Y-101699773D01*
X190122887Y-101719573D01*
X190067977Y-101759467D01*
X190020232Y-101798651D01*
X189996827Y-101811161D01*
X189970500Y-101830289D01*
X189913873Y-101855500D01*
X189864566Y-101881856D01*
X189833537Y-101891268D01*
X189798424Y-101906902D01*
X189743555Y-101918564D01*
X189695659Y-101933094D01*
X189657532Y-101936849D01*
X189614180Y-101946064D01*
X189563973Y-101946064D01*
X189520000Y-101950395D01*
X189476027Y-101946064D01*
X189425820Y-101946064D01*
X189382467Y-101936849D01*
X189344340Y-101933094D01*
X189296441Y-101918563D01*
X189241576Y-101906902D01*
X189206464Y-101891269D01*
X189175433Y-101881856D01*
X189126120Y-101855498D01*
X189069500Y-101830289D01*
X189043175Y-101811163D01*
X189019767Y-101798651D01*
X188972013Y-101759460D01*
X188917113Y-101719573D01*
X188899287Y-101699776D01*
X188883324Y-101686675D01*
X188840425Y-101634402D01*
X188791076Y-101579595D01*
X188780708Y-101561637D01*
X188771348Y-101550232D01*
X188736719Y-101485447D01*
X188696896Y-101416470D01*
X188692315Y-101402371D01*
X188688143Y-101394566D01*
X188665136Y-101318725D01*
X188638689Y-101237328D01*
X188637758Y-101228471D01*
X188636905Y-101225659D01*
X188628600Y-101141342D01*
X188619000Y-101050000D01*
X188628599Y-100958664D01*
X188636905Y-100874340D01*
X188637758Y-100871527D01*
X188638689Y-100862672D01*
X188665132Y-100781288D01*
X188688143Y-100705433D01*
X188692315Y-100697626D01*
X188696896Y-100683530D01*
X188736712Y-100614565D01*
X188771348Y-100549767D01*
X188780710Y-100538359D01*
X188791076Y-100520405D01*
X188840416Y-100465607D01*
X188883324Y-100413324D01*
X188899291Y-100400219D01*
X188917113Y-100380427D01*
X188972002Y-100340546D01*
X189019767Y-100301348D01*
X189043180Y-100288833D01*
X189069500Y-100269711D01*
X189126109Y-100244506D01*
X189175433Y-100218143D01*
X189206471Y-100208727D01*
X189241576Y-100193098D01*
X189296430Y-100181438D01*
X189344340Y-100166905D01*
X189382476Y-100163148D01*
X189425820Y-100153936D01*
X189476016Y-100153936D01*
X189520000Y-100149604D01*
X189563983Y-100153936D01*
G37*
G36*
X192103983Y-100153936D02*
G01*
X192154180Y-100153936D01*
X192197524Y-100163149D01*
X192235659Y-100166905D01*
X192283566Y-100181437D01*
X192338424Y-100193098D01*
X192373530Y-100208728D01*
X192404566Y-100218143D01*
X192453884Y-100244504D01*
X192510500Y-100269711D01*
X192536822Y-100288835D01*
X192560232Y-100301348D01*
X192607988Y-100340540D01*
X192662887Y-100380427D01*
X192680711Y-100400223D01*
X192696675Y-100413324D01*
X192739572Y-100465594D01*
X192788924Y-100520405D01*
X192799292Y-100538363D01*
X192808651Y-100549767D01*
X192843273Y-100614542D01*
X192883104Y-100683530D01*
X192887685Y-100697630D01*
X192891856Y-100705433D01*
X192914852Y-100781242D01*
X192941311Y-100862672D01*
X192942242Y-100871532D01*
X192943094Y-100874340D01*
X192951385Y-100958520D01*
X192961000Y-101050000D01*
X192951382Y-101141501D01*
X192943094Y-101225659D01*
X192942242Y-101228466D01*
X192941311Y-101237328D01*
X192914848Y-101318771D01*
X192891856Y-101394566D01*
X192887686Y-101402366D01*
X192883104Y-101416470D01*
X192843266Y-101485470D01*
X192808651Y-101550232D01*
X192799294Y-101561633D01*
X192788924Y-101579595D01*
X192739563Y-101634415D01*
X192696675Y-101686675D01*
X192680714Y-101699773D01*
X192662887Y-101719573D01*
X192607977Y-101759467D01*
X192560232Y-101798651D01*
X192536827Y-101811161D01*
X192510500Y-101830289D01*
X192453873Y-101855500D01*
X192404566Y-101881856D01*
X192373537Y-101891268D01*
X192338424Y-101906902D01*
X192283555Y-101918564D01*
X192235659Y-101933094D01*
X192197533Y-101936849D01*
X192154180Y-101946064D01*
X192103972Y-101946064D01*
X192059999Y-101950395D01*
X192016026Y-101946064D01*
X191965820Y-101946064D01*
X191922467Y-101936849D01*
X191884340Y-101933094D01*
X191836441Y-101918563D01*
X191781576Y-101906902D01*
X191746464Y-101891269D01*
X191715433Y-101881856D01*
X191666120Y-101855498D01*
X191609500Y-101830289D01*
X191583175Y-101811163D01*
X191559767Y-101798651D01*
X191512013Y-101759460D01*
X191457113Y-101719573D01*
X191439287Y-101699776D01*
X191423324Y-101686675D01*
X191380425Y-101634402D01*
X191331076Y-101579595D01*
X191320708Y-101561637D01*
X191311348Y-101550232D01*
X191276719Y-101485447D01*
X191236896Y-101416470D01*
X191232315Y-101402371D01*
X191228143Y-101394566D01*
X191205136Y-101318725D01*
X191178689Y-101237328D01*
X191177758Y-101228471D01*
X191176905Y-101225659D01*
X191168601Y-101141349D01*
X191159000Y-101050000D01*
X191168598Y-100958672D01*
X191176905Y-100874340D01*
X191177758Y-100871527D01*
X191178689Y-100862672D01*
X191205132Y-100781288D01*
X191228143Y-100705433D01*
X191232315Y-100697626D01*
X191236896Y-100683530D01*
X191276712Y-100614565D01*
X191311348Y-100549767D01*
X191320710Y-100538359D01*
X191331076Y-100520405D01*
X191380416Y-100465607D01*
X191423324Y-100413324D01*
X191439291Y-100400219D01*
X191457113Y-100380427D01*
X191512002Y-100340546D01*
X191559767Y-100301348D01*
X191583180Y-100288833D01*
X191609500Y-100269711D01*
X191666109Y-100244506D01*
X191715433Y-100218143D01*
X191746471Y-100208727D01*
X191781576Y-100193098D01*
X191836430Y-100181438D01*
X191884340Y-100166905D01*
X191922476Y-100163148D01*
X191965820Y-100153936D01*
X192016016Y-100153936D01*
X192059999Y-100149604D01*
X192103983Y-100153936D01*
G37*
G36*
X194643983Y-100153936D02*
G01*
X194694180Y-100153936D01*
X194737524Y-100163149D01*
X194775659Y-100166905D01*
X194823566Y-100181437D01*
X194878424Y-100193098D01*
X194913530Y-100208728D01*
X194944566Y-100218143D01*
X194993884Y-100244504D01*
X195050500Y-100269711D01*
X195076822Y-100288835D01*
X195100232Y-100301348D01*
X195147988Y-100340540D01*
X195202887Y-100380427D01*
X195220711Y-100400223D01*
X195236675Y-100413324D01*
X195279572Y-100465594D01*
X195328924Y-100520405D01*
X195339292Y-100538363D01*
X195348651Y-100549767D01*
X195383273Y-100614542D01*
X195423104Y-100683530D01*
X195427685Y-100697630D01*
X195431856Y-100705433D01*
X195454852Y-100781242D01*
X195481311Y-100862672D01*
X195482242Y-100871532D01*
X195483094Y-100874340D01*
X195491385Y-100958520D01*
X195501000Y-101050000D01*
X195491382Y-101141501D01*
X195483094Y-101225659D01*
X195482242Y-101228466D01*
X195481311Y-101237328D01*
X195454848Y-101318771D01*
X195431856Y-101394566D01*
X195427686Y-101402366D01*
X195423104Y-101416470D01*
X195383266Y-101485470D01*
X195348651Y-101550232D01*
X195339294Y-101561633D01*
X195328924Y-101579595D01*
X195279563Y-101634415D01*
X195236675Y-101686675D01*
X195220714Y-101699773D01*
X195202887Y-101719573D01*
X195147977Y-101759467D01*
X195100232Y-101798651D01*
X195076827Y-101811161D01*
X195050500Y-101830289D01*
X194993873Y-101855500D01*
X194944566Y-101881856D01*
X194913537Y-101891268D01*
X194878424Y-101906902D01*
X194823555Y-101918564D01*
X194775659Y-101933094D01*
X194737533Y-101936849D01*
X194694180Y-101946064D01*
X194643972Y-101946064D01*
X194599999Y-101950395D01*
X194556026Y-101946064D01*
X194505820Y-101946064D01*
X194462467Y-101936849D01*
X194424340Y-101933094D01*
X194376441Y-101918563D01*
X194321576Y-101906902D01*
X194286464Y-101891269D01*
X194255433Y-101881856D01*
X194206120Y-101855498D01*
X194149500Y-101830289D01*
X194123175Y-101811163D01*
X194099767Y-101798651D01*
X194052013Y-101759460D01*
X193997113Y-101719573D01*
X193979287Y-101699776D01*
X193963324Y-101686675D01*
X193920425Y-101634402D01*
X193871076Y-101579595D01*
X193860708Y-101561637D01*
X193851348Y-101550232D01*
X193816719Y-101485447D01*
X193776896Y-101416470D01*
X193772315Y-101402371D01*
X193768143Y-101394566D01*
X193745136Y-101318725D01*
X193718689Y-101237328D01*
X193717758Y-101228471D01*
X193716905Y-101225659D01*
X193708601Y-101141349D01*
X193699000Y-101050000D01*
X193708598Y-100958672D01*
X193716905Y-100874340D01*
X193717758Y-100871527D01*
X193718689Y-100862672D01*
X193745132Y-100781288D01*
X193768143Y-100705433D01*
X193772315Y-100697626D01*
X193776896Y-100683530D01*
X193816712Y-100614565D01*
X193851348Y-100549767D01*
X193860710Y-100538359D01*
X193871076Y-100520405D01*
X193920416Y-100465607D01*
X193963324Y-100413324D01*
X193979291Y-100400219D01*
X193997113Y-100380427D01*
X194052002Y-100340546D01*
X194099767Y-100301348D01*
X194123180Y-100288833D01*
X194149500Y-100269711D01*
X194206109Y-100244506D01*
X194255433Y-100218143D01*
X194286471Y-100208727D01*
X194321576Y-100193098D01*
X194376430Y-100181438D01*
X194424340Y-100166905D01*
X194462476Y-100163148D01*
X194505820Y-100153936D01*
X194556016Y-100153936D01*
X194599999Y-100149604D01*
X194643983Y-100153936D01*
G37*
G36*
X154829517Y-97612882D02*
G01*
X154846062Y-97623938D01*
X154857118Y-97640483D01*
X154861000Y-97660000D01*
X154861000Y-99360000D01*
X154857118Y-99379517D01*
X154846062Y-99396062D01*
X154829517Y-99407118D01*
X154810000Y-99411000D01*
X153110000Y-99411000D01*
X153090483Y-99407118D01*
X153073938Y-99396062D01*
X153062882Y-99379517D01*
X153059000Y-99360000D01*
X153059000Y-97660000D01*
X153062882Y-97640483D01*
X153073938Y-97623938D01*
X153090483Y-97612882D01*
X153110000Y-97609000D01*
X154810000Y-97609000D01*
X154829517Y-97612882D01*
G37*
G36*
X156543983Y-97613936D02*
G01*
X156594180Y-97613936D01*
X156637524Y-97623149D01*
X156675659Y-97626905D01*
X156723566Y-97641437D01*
X156778424Y-97653098D01*
X156813530Y-97668728D01*
X156844566Y-97678143D01*
X156893884Y-97704504D01*
X156950500Y-97729711D01*
X156976822Y-97748835D01*
X157000232Y-97761348D01*
X157047988Y-97800540D01*
X157102887Y-97840427D01*
X157120711Y-97860223D01*
X157136675Y-97873324D01*
X157179572Y-97925594D01*
X157228924Y-97980405D01*
X157239292Y-97998363D01*
X157248651Y-98009767D01*
X157283273Y-98074542D01*
X157323104Y-98143530D01*
X157327685Y-98157630D01*
X157331856Y-98165433D01*
X157354852Y-98241242D01*
X157381311Y-98322672D01*
X157382242Y-98331532D01*
X157383094Y-98334340D01*
X157391385Y-98418520D01*
X157401000Y-98510000D01*
X157391382Y-98601501D01*
X157383094Y-98685659D01*
X157382242Y-98688466D01*
X157381311Y-98697328D01*
X157354848Y-98778771D01*
X157331856Y-98854566D01*
X157327686Y-98862366D01*
X157323104Y-98876470D01*
X157283266Y-98945470D01*
X157248651Y-99010232D01*
X157239294Y-99021633D01*
X157228924Y-99039595D01*
X157179563Y-99094415D01*
X157136675Y-99146675D01*
X157120714Y-99159773D01*
X157102887Y-99179573D01*
X157047977Y-99219467D01*
X157000232Y-99258651D01*
X156976827Y-99271161D01*
X156950500Y-99290289D01*
X156893873Y-99315500D01*
X156844566Y-99341856D01*
X156813537Y-99351268D01*
X156778424Y-99366902D01*
X156723555Y-99378564D01*
X156675659Y-99393094D01*
X156637532Y-99396849D01*
X156594180Y-99406064D01*
X156543973Y-99406064D01*
X156500000Y-99410395D01*
X156456027Y-99406064D01*
X156405820Y-99406064D01*
X156362467Y-99396849D01*
X156324340Y-99393094D01*
X156276441Y-99378563D01*
X156221576Y-99366902D01*
X156186464Y-99351269D01*
X156155433Y-99341856D01*
X156106120Y-99315498D01*
X156049500Y-99290289D01*
X156023175Y-99271163D01*
X155999767Y-99258651D01*
X155952013Y-99219460D01*
X155897113Y-99179573D01*
X155879287Y-99159776D01*
X155863324Y-99146675D01*
X155820425Y-99094402D01*
X155771076Y-99039595D01*
X155760708Y-99021637D01*
X155751348Y-99010232D01*
X155716719Y-98945447D01*
X155676896Y-98876470D01*
X155672315Y-98862371D01*
X155668143Y-98854566D01*
X155645136Y-98778725D01*
X155618689Y-98697328D01*
X155617758Y-98688471D01*
X155616905Y-98685659D01*
X155608601Y-98601349D01*
X155599000Y-98510000D01*
X155608598Y-98418672D01*
X155616905Y-98334340D01*
X155617758Y-98331527D01*
X155618689Y-98322672D01*
X155645132Y-98241288D01*
X155668143Y-98165433D01*
X155672315Y-98157626D01*
X155676896Y-98143530D01*
X155716712Y-98074565D01*
X155751348Y-98009767D01*
X155760710Y-97998359D01*
X155771076Y-97980405D01*
X155820416Y-97925607D01*
X155863324Y-97873324D01*
X155879291Y-97860219D01*
X155897113Y-97840427D01*
X155952002Y-97800546D01*
X155999767Y-97761348D01*
X156023180Y-97748833D01*
X156049500Y-97729711D01*
X156106109Y-97704506D01*
X156155433Y-97678143D01*
X156186471Y-97668727D01*
X156221576Y-97653098D01*
X156276430Y-97641438D01*
X156324340Y-97626905D01*
X156362476Y-97623148D01*
X156405820Y-97613936D01*
X156456016Y-97613936D01*
X156500000Y-97609604D01*
X156543983Y-97613936D01*
G37*
G36*
X159083983Y-97613936D02*
G01*
X159134180Y-97613936D01*
X159177524Y-97623149D01*
X159215659Y-97626905D01*
X159263566Y-97641437D01*
X159318424Y-97653098D01*
X159353530Y-97668728D01*
X159384566Y-97678143D01*
X159433884Y-97704504D01*
X159490500Y-97729711D01*
X159516822Y-97748835D01*
X159540232Y-97761348D01*
X159587988Y-97800540D01*
X159642887Y-97840427D01*
X159660711Y-97860223D01*
X159676675Y-97873324D01*
X159719572Y-97925594D01*
X159768924Y-97980405D01*
X159779292Y-97998363D01*
X159788651Y-98009767D01*
X159823273Y-98074542D01*
X159863104Y-98143530D01*
X159867685Y-98157630D01*
X159871856Y-98165433D01*
X159894852Y-98241242D01*
X159921311Y-98322672D01*
X159922242Y-98331532D01*
X159923094Y-98334340D01*
X159931385Y-98418520D01*
X159941000Y-98510000D01*
X159931382Y-98601501D01*
X159923094Y-98685659D01*
X159922242Y-98688466D01*
X159921311Y-98697328D01*
X159894848Y-98778771D01*
X159871856Y-98854566D01*
X159867686Y-98862366D01*
X159863104Y-98876470D01*
X159823266Y-98945470D01*
X159788651Y-99010232D01*
X159779294Y-99021633D01*
X159768924Y-99039595D01*
X159719563Y-99094415D01*
X159676675Y-99146675D01*
X159660714Y-99159773D01*
X159642887Y-99179573D01*
X159587977Y-99219467D01*
X159540232Y-99258651D01*
X159516827Y-99271161D01*
X159490500Y-99290289D01*
X159433873Y-99315500D01*
X159384566Y-99341856D01*
X159353537Y-99351268D01*
X159318424Y-99366902D01*
X159263555Y-99378564D01*
X159215659Y-99393094D01*
X159177532Y-99396849D01*
X159134180Y-99406064D01*
X159083973Y-99406064D01*
X159040000Y-99410395D01*
X158996027Y-99406064D01*
X158945820Y-99406064D01*
X158902467Y-99396849D01*
X158864340Y-99393094D01*
X158816441Y-99378563D01*
X158761576Y-99366902D01*
X158726464Y-99351269D01*
X158695433Y-99341856D01*
X158646120Y-99315498D01*
X158589500Y-99290289D01*
X158563175Y-99271163D01*
X158539767Y-99258651D01*
X158492013Y-99219460D01*
X158437113Y-99179573D01*
X158419287Y-99159776D01*
X158403324Y-99146675D01*
X158360425Y-99094402D01*
X158311076Y-99039595D01*
X158300708Y-99021637D01*
X158291348Y-99010232D01*
X158256719Y-98945447D01*
X158216896Y-98876470D01*
X158212315Y-98862371D01*
X158208143Y-98854566D01*
X158185136Y-98778725D01*
X158158689Y-98697328D01*
X158157758Y-98688471D01*
X158156905Y-98685659D01*
X158148601Y-98601349D01*
X158139000Y-98510000D01*
X158148598Y-98418672D01*
X158156905Y-98334340D01*
X158157758Y-98331527D01*
X158158689Y-98322672D01*
X158185132Y-98241288D01*
X158208143Y-98165433D01*
X158212315Y-98157626D01*
X158216896Y-98143530D01*
X158256712Y-98074565D01*
X158291348Y-98009767D01*
X158300710Y-97998359D01*
X158311076Y-97980405D01*
X158360416Y-97925607D01*
X158403324Y-97873324D01*
X158419291Y-97860219D01*
X158437113Y-97840427D01*
X158492002Y-97800546D01*
X158539767Y-97761348D01*
X158563180Y-97748833D01*
X158589500Y-97729711D01*
X158646109Y-97704506D01*
X158695433Y-97678143D01*
X158726471Y-97668727D01*
X158761576Y-97653098D01*
X158816430Y-97641438D01*
X158864340Y-97626905D01*
X158902476Y-97623148D01*
X158945820Y-97613936D01*
X158996016Y-97613936D01*
X159040000Y-97609604D01*
X159083983Y-97613936D01*
G37*
G36*
X161623983Y-97613936D02*
G01*
X161674180Y-97613936D01*
X161717524Y-97623149D01*
X161755659Y-97626905D01*
X161803566Y-97641437D01*
X161858424Y-97653098D01*
X161893530Y-97668728D01*
X161924566Y-97678143D01*
X161973884Y-97704504D01*
X162030500Y-97729711D01*
X162056822Y-97748835D01*
X162080232Y-97761348D01*
X162127988Y-97800540D01*
X162182887Y-97840427D01*
X162200711Y-97860223D01*
X162216675Y-97873324D01*
X162259572Y-97925594D01*
X162308924Y-97980405D01*
X162319292Y-97998363D01*
X162328651Y-98009767D01*
X162363273Y-98074542D01*
X162403104Y-98143530D01*
X162407685Y-98157630D01*
X162411856Y-98165433D01*
X162434852Y-98241242D01*
X162461311Y-98322672D01*
X162462242Y-98331532D01*
X162463094Y-98334340D01*
X162471385Y-98418520D01*
X162481000Y-98510000D01*
X162471382Y-98601501D01*
X162463094Y-98685659D01*
X162462242Y-98688466D01*
X162461311Y-98697328D01*
X162434848Y-98778771D01*
X162411856Y-98854566D01*
X162407686Y-98862366D01*
X162403104Y-98876470D01*
X162363266Y-98945470D01*
X162328651Y-99010232D01*
X162319294Y-99021633D01*
X162308924Y-99039595D01*
X162259563Y-99094415D01*
X162216675Y-99146675D01*
X162200714Y-99159773D01*
X162182887Y-99179573D01*
X162127977Y-99219467D01*
X162080232Y-99258651D01*
X162056827Y-99271161D01*
X162030500Y-99290289D01*
X161973873Y-99315500D01*
X161924566Y-99341856D01*
X161893537Y-99351268D01*
X161858424Y-99366902D01*
X161803555Y-99378564D01*
X161755659Y-99393094D01*
X161717533Y-99396849D01*
X161674180Y-99406064D01*
X161623972Y-99406064D01*
X161579999Y-99410395D01*
X161536026Y-99406064D01*
X161485820Y-99406064D01*
X161442467Y-99396849D01*
X161404340Y-99393094D01*
X161356441Y-99378563D01*
X161301576Y-99366902D01*
X161266464Y-99351269D01*
X161235433Y-99341856D01*
X161186120Y-99315498D01*
X161129500Y-99290289D01*
X161103175Y-99271163D01*
X161079767Y-99258651D01*
X161032013Y-99219460D01*
X160977113Y-99179573D01*
X160959287Y-99159776D01*
X160943324Y-99146675D01*
X160900425Y-99094402D01*
X160851076Y-99039595D01*
X160840708Y-99021637D01*
X160831348Y-99010232D01*
X160796719Y-98945447D01*
X160756896Y-98876470D01*
X160752315Y-98862371D01*
X160748143Y-98854566D01*
X160725136Y-98778725D01*
X160698689Y-98697328D01*
X160697758Y-98688471D01*
X160696905Y-98685659D01*
X160688601Y-98601349D01*
X160679000Y-98510000D01*
X160688598Y-98418672D01*
X160696905Y-98334340D01*
X160697758Y-98331527D01*
X160698689Y-98322672D01*
X160725132Y-98241288D01*
X160748143Y-98165433D01*
X160752315Y-98157626D01*
X160756896Y-98143530D01*
X160796712Y-98074565D01*
X160831348Y-98009767D01*
X160840710Y-97998359D01*
X160851076Y-97980405D01*
X160900416Y-97925607D01*
X160943324Y-97873324D01*
X160959291Y-97860219D01*
X160977113Y-97840427D01*
X161032002Y-97800546D01*
X161079767Y-97761348D01*
X161103180Y-97748833D01*
X161129500Y-97729711D01*
X161186109Y-97704506D01*
X161235433Y-97678143D01*
X161266471Y-97668727D01*
X161301576Y-97653098D01*
X161356430Y-97641438D01*
X161404340Y-97626905D01*
X161442476Y-97623148D01*
X161485820Y-97613936D01*
X161536016Y-97613936D01*
X161579999Y-97609604D01*
X161623983Y-97613936D01*
G37*
G36*
X164163983Y-97613936D02*
G01*
X164214180Y-97613936D01*
X164257524Y-97623149D01*
X164295659Y-97626905D01*
X164343566Y-97641437D01*
X164398424Y-97653098D01*
X164433530Y-97668728D01*
X164464566Y-97678143D01*
X164513884Y-97704504D01*
X164570500Y-97729711D01*
X164596822Y-97748835D01*
X164620232Y-97761348D01*
X164667988Y-97800540D01*
X164722887Y-97840427D01*
X164740711Y-97860223D01*
X164756675Y-97873324D01*
X164799572Y-97925594D01*
X164848924Y-97980405D01*
X164859292Y-97998363D01*
X164868651Y-98009767D01*
X164903273Y-98074542D01*
X164943104Y-98143530D01*
X164947685Y-98157630D01*
X164951856Y-98165433D01*
X164974852Y-98241242D01*
X165001311Y-98322672D01*
X165002242Y-98331532D01*
X165003094Y-98334340D01*
X165011385Y-98418520D01*
X165021000Y-98510000D01*
X165011382Y-98601501D01*
X165003094Y-98685659D01*
X165002242Y-98688466D01*
X165001311Y-98697328D01*
X164974848Y-98778771D01*
X164951856Y-98854566D01*
X164947686Y-98862366D01*
X164943104Y-98876470D01*
X164903266Y-98945470D01*
X164868651Y-99010232D01*
X164859294Y-99021633D01*
X164848924Y-99039595D01*
X164799563Y-99094415D01*
X164756675Y-99146675D01*
X164740714Y-99159773D01*
X164722887Y-99179573D01*
X164667977Y-99219467D01*
X164620232Y-99258651D01*
X164596827Y-99271161D01*
X164570500Y-99290289D01*
X164513873Y-99315500D01*
X164464566Y-99341856D01*
X164433537Y-99351268D01*
X164398424Y-99366902D01*
X164343555Y-99378564D01*
X164295659Y-99393094D01*
X164257532Y-99396849D01*
X164214180Y-99406064D01*
X164163973Y-99406064D01*
X164120000Y-99410395D01*
X164076027Y-99406064D01*
X164025820Y-99406064D01*
X163982467Y-99396849D01*
X163944340Y-99393094D01*
X163896441Y-99378563D01*
X163841576Y-99366902D01*
X163806464Y-99351269D01*
X163775433Y-99341856D01*
X163726120Y-99315498D01*
X163669500Y-99290289D01*
X163643175Y-99271163D01*
X163619767Y-99258651D01*
X163572013Y-99219460D01*
X163517113Y-99179573D01*
X163499287Y-99159776D01*
X163483324Y-99146675D01*
X163440425Y-99094402D01*
X163391076Y-99039595D01*
X163380708Y-99021637D01*
X163371348Y-99010232D01*
X163336719Y-98945447D01*
X163296896Y-98876470D01*
X163292315Y-98862371D01*
X163288143Y-98854566D01*
X163265136Y-98778725D01*
X163238689Y-98697328D01*
X163237758Y-98688471D01*
X163236905Y-98685659D01*
X163228601Y-98601349D01*
X163219000Y-98510000D01*
X163228598Y-98418672D01*
X163236905Y-98334340D01*
X163237758Y-98331527D01*
X163238689Y-98322672D01*
X163265132Y-98241288D01*
X163288143Y-98165433D01*
X163292315Y-98157626D01*
X163296896Y-98143530D01*
X163336712Y-98074565D01*
X163371348Y-98009767D01*
X163380710Y-97998359D01*
X163391076Y-97980405D01*
X163440416Y-97925607D01*
X163483324Y-97873324D01*
X163499291Y-97860219D01*
X163517113Y-97840427D01*
X163572002Y-97800546D01*
X163619767Y-97761348D01*
X163643180Y-97748833D01*
X163669500Y-97729711D01*
X163726109Y-97704506D01*
X163775433Y-97678143D01*
X163806471Y-97668727D01*
X163841576Y-97653098D01*
X163896430Y-97641438D01*
X163944340Y-97626905D01*
X163982476Y-97623148D01*
X164025820Y-97613936D01*
X164076016Y-97613936D01*
X164120000Y-97609604D01*
X164163983Y-97613936D01*
G37*
G36*
X166703983Y-97613936D02*
G01*
X166754180Y-97613936D01*
X166797524Y-97623149D01*
X166835659Y-97626905D01*
X166883566Y-97641437D01*
X166938424Y-97653098D01*
X166973530Y-97668728D01*
X167004566Y-97678143D01*
X167053884Y-97704504D01*
X167110500Y-97729711D01*
X167136822Y-97748835D01*
X167160232Y-97761348D01*
X167207988Y-97800540D01*
X167262887Y-97840427D01*
X167280711Y-97860223D01*
X167296675Y-97873324D01*
X167339572Y-97925594D01*
X167388924Y-97980405D01*
X167399292Y-97998363D01*
X167408651Y-98009767D01*
X167443273Y-98074542D01*
X167483104Y-98143530D01*
X167487685Y-98157630D01*
X167491856Y-98165433D01*
X167514852Y-98241242D01*
X167541311Y-98322672D01*
X167542242Y-98331532D01*
X167543094Y-98334340D01*
X167551384Y-98418513D01*
X167561000Y-98510000D01*
X167551383Y-98601494D01*
X167543094Y-98685659D01*
X167542242Y-98688466D01*
X167541311Y-98697328D01*
X167514848Y-98778771D01*
X167491856Y-98854566D01*
X167487686Y-98862366D01*
X167483104Y-98876470D01*
X167443266Y-98945470D01*
X167408651Y-99010232D01*
X167399294Y-99021633D01*
X167388924Y-99039595D01*
X167339563Y-99094415D01*
X167296675Y-99146675D01*
X167280714Y-99159773D01*
X167262887Y-99179573D01*
X167207977Y-99219467D01*
X167160232Y-99258651D01*
X167136827Y-99271161D01*
X167110500Y-99290289D01*
X167053873Y-99315500D01*
X167004566Y-99341856D01*
X166973537Y-99351268D01*
X166938424Y-99366902D01*
X166883555Y-99378564D01*
X166835659Y-99393094D01*
X166797532Y-99396849D01*
X166754180Y-99406064D01*
X166703973Y-99406064D01*
X166660000Y-99410395D01*
X166616027Y-99406064D01*
X166565820Y-99406064D01*
X166522467Y-99396849D01*
X166484340Y-99393094D01*
X166436441Y-99378563D01*
X166381576Y-99366902D01*
X166346464Y-99351269D01*
X166315433Y-99341856D01*
X166266120Y-99315498D01*
X166209500Y-99290289D01*
X166183175Y-99271163D01*
X166159767Y-99258651D01*
X166112013Y-99219460D01*
X166057113Y-99179573D01*
X166039287Y-99159776D01*
X166023324Y-99146675D01*
X165980425Y-99094402D01*
X165931076Y-99039595D01*
X165920708Y-99021637D01*
X165911348Y-99010232D01*
X165876719Y-98945447D01*
X165836896Y-98876470D01*
X165832315Y-98862371D01*
X165828143Y-98854566D01*
X165805136Y-98778725D01*
X165778689Y-98697328D01*
X165777758Y-98688471D01*
X165776905Y-98685659D01*
X165768600Y-98601342D01*
X165759000Y-98510000D01*
X165768599Y-98418664D01*
X165776905Y-98334340D01*
X165777758Y-98331527D01*
X165778689Y-98322672D01*
X165805132Y-98241288D01*
X165828143Y-98165433D01*
X165832315Y-98157626D01*
X165836896Y-98143530D01*
X165876712Y-98074565D01*
X165911348Y-98009767D01*
X165920710Y-97998359D01*
X165931076Y-97980405D01*
X165980416Y-97925607D01*
X166023324Y-97873324D01*
X166039291Y-97860219D01*
X166057113Y-97840427D01*
X166112002Y-97800546D01*
X166159767Y-97761348D01*
X166183180Y-97748833D01*
X166209500Y-97729711D01*
X166266109Y-97704506D01*
X166315433Y-97678143D01*
X166346471Y-97668727D01*
X166381576Y-97653098D01*
X166436430Y-97641438D01*
X166484340Y-97626905D01*
X166522476Y-97623148D01*
X166565820Y-97613936D01*
X166616016Y-97613936D01*
X166660000Y-97609604D01*
X166703983Y-97613936D01*
G37*
G36*
X169243983Y-97613936D02*
G01*
X169294180Y-97613936D01*
X169337524Y-97623149D01*
X169375659Y-97626905D01*
X169423566Y-97641437D01*
X169478424Y-97653098D01*
X169513530Y-97668728D01*
X169544566Y-97678143D01*
X169593884Y-97704504D01*
X169650500Y-97729711D01*
X169676822Y-97748835D01*
X169700232Y-97761348D01*
X169747988Y-97800540D01*
X169802887Y-97840427D01*
X169820711Y-97860223D01*
X169836675Y-97873324D01*
X169879572Y-97925594D01*
X169928924Y-97980405D01*
X169939292Y-97998363D01*
X169948651Y-98009767D01*
X169983273Y-98074542D01*
X170023104Y-98143530D01*
X170027685Y-98157630D01*
X170031856Y-98165433D01*
X170054852Y-98241242D01*
X170081311Y-98322672D01*
X170082242Y-98331532D01*
X170083094Y-98334340D01*
X170091384Y-98418513D01*
X170101000Y-98510000D01*
X170091383Y-98601494D01*
X170083094Y-98685659D01*
X170082242Y-98688466D01*
X170081311Y-98697328D01*
X170054848Y-98778771D01*
X170031856Y-98854566D01*
X170027686Y-98862366D01*
X170023104Y-98876470D01*
X169983266Y-98945470D01*
X169948651Y-99010232D01*
X169939294Y-99021633D01*
X169928924Y-99039595D01*
X169879563Y-99094415D01*
X169836675Y-99146675D01*
X169820714Y-99159773D01*
X169802887Y-99179573D01*
X169747977Y-99219467D01*
X169700232Y-99258651D01*
X169676827Y-99271161D01*
X169650500Y-99290289D01*
X169593873Y-99315500D01*
X169544566Y-99341856D01*
X169513537Y-99351268D01*
X169478424Y-99366902D01*
X169423555Y-99378564D01*
X169375659Y-99393094D01*
X169337532Y-99396849D01*
X169294180Y-99406064D01*
X169243973Y-99406064D01*
X169200000Y-99410395D01*
X169156027Y-99406064D01*
X169105820Y-99406064D01*
X169062467Y-99396849D01*
X169024340Y-99393094D01*
X168976441Y-99378563D01*
X168921576Y-99366902D01*
X168886464Y-99351269D01*
X168855433Y-99341856D01*
X168806120Y-99315498D01*
X168749500Y-99290289D01*
X168723175Y-99271163D01*
X168699767Y-99258651D01*
X168652013Y-99219460D01*
X168597113Y-99179573D01*
X168579287Y-99159776D01*
X168563324Y-99146675D01*
X168520425Y-99094402D01*
X168471076Y-99039595D01*
X168460708Y-99021637D01*
X168451348Y-99010232D01*
X168416719Y-98945447D01*
X168376896Y-98876470D01*
X168372315Y-98862371D01*
X168368143Y-98854566D01*
X168345136Y-98778725D01*
X168318689Y-98697328D01*
X168317758Y-98688471D01*
X168316905Y-98685659D01*
X168308600Y-98601342D01*
X168299000Y-98510000D01*
X168308599Y-98418664D01*
X168316905Y-98334340D01*
X168317758Y-98331527D01*
X168318689Y-98322672D01*
X168345132Y-98241288D01*
X168368143Y-98165433D01*
X168372315Y-98157626D01*
X168376896Y-98143530D01*
X168416712Y-98074565D01*
X168451348Y-98009767D01*
X168460710Y-97998359D01*
X168471076Y-97980405D01*
X168520416Y-97925607D01*
X168563324Y-97873324D01*
X168579291Y-97860219D01*
X168597113Y-97840427D01*
X168652002Y-97800546D01*
X168699767Y-97761348D01*
X168723180Y-97748833D01*
X168749500Y-97729711D01*
X168806109Y-97704506D01*
X168855433Y-97678143D01*
X168886471Y-97668727D01*
X168921576Y-97653098D01*
X168976430Y-97641438D01*
X169024340Y-97626905D01*
X169062476Y-97623148D01*
X169105820Y-97613936D01*
X169156016Y-97613936D01*
X169200000Y-97609604D01*
X169243983Y-97613936D01*
G37*
G36*
X171783983Y-97613936D02*
G01*
X171834180Y-97613936D01*
X171877524Y-97623149D01*
X171915659Y-97626905D01*
X171963566Y-97641437D01*
X172018424Y-97653098D01*
X172053530Y-97668728D01*
X172084566Y-97678143D01*
X172133884Y-97704504D01*
X172190500Y-97729711D01*
X172216822Y-97748835D01*
X172240232Y-97761348D01*
X172287988Y-97800540D01*
X172342887Y-97840427D01*
X172360711Y-97860223D01*
X172376675Y-97873324D01*
X172419572Y-97925594D01*
X172468924Y-97980405D01*
X172479292Y-97998363D01*
X172488651Y-98009767D01*
X172523273Y-98074542D01*
X172563104Y-98143530D01*
X172567685Y-98157630D01*
X172571856Y-98165433D01*
X172594852Y-98241242D01*
X172621311Y-98322672D01*
X172622242Y-98331532D01*
X172623094Y-98334340D01*
X172631384Y-98418513D01*
X172641000Y-98510000D01*
X172631383Y-98601494D01*
X172623094Y-98685659D01*
X172622242Y-98688466D01*
X172621311Y-98697328D01*
X172594848Y-98778771D01*
X172571856Y-98854566D01*
X172567686Y-98862366D01*
X172563104Y-98876470D01*
X172523266Y-98945470D01*
X172488651Y-99010232D01*
X172479294Y-99021633D01*
X172468924Y-99039595D01*
X172419563Y-99094415D01*
X172376675Y-99146675D01*
X172360714Y-99159773D01*
X172342887Y-99179573D01*
X172287977Y-99219467D01*
X172240232Y-99258651D01*
X172216827Y-99271161D01*
X172190500Y-99290289D01*
X172133873Y-99315500D01*
X172084566Y-99341856D01*
X172053537Y-99351268D01*
X172018424Y-99366902D01*
X171963555Y-99378564D01*
X171915659Y-99393094D01*
X171877532Y-99396849D01*
X171834180Y-99406064D01*
X171783973Y-99406064D01*
X171740000Y-99410395D01*
X171696027Y-99406064D01*
X171645820Y-99406064D01*
X171602467Y-99396849D01*
X171564340Y-99393094D01*
X171516441Y-99378563D01*
X171461576Y-99366902D01*
X171426464Y-99351269D01*
X171395433Y-99341856D01*
X171346120Y-99315498D01*
X171289500Y-99290289D01*
X171263175Y-99271163D01*
X171239767Y-99258651D01*
X171192013Y-99219460D01*
X171137113Y-99179573D01*
X171119287Y-99159776D01*
X171103324Y-99146675D01*
X171060425Y-99094402D01*
X171011076Y-99039595D01*
X171000708Y-99021637D01*
X170991348Y-99010232D01*
X170956719Y-98945447D01*
X170916896Y-98876470D01*
X170912315Y-98862371D01*
X170908143Y-98854566D01*
X170885136Y-98778725D01*
X170858689Y-98697328D01*
X170857758Y-98688471D01*
X170856905Y-98685659D01*
X170848600Y-98601342D01*
X170839000Y-98510000D01*
X170848599Y-98418664D01*
X170856905Y-98334340D01*
X170857758Y-98331527D01*
X170858689Y-98322672D01*
X170885132Y-98241288D01*
X170908143Y-98165433D01*
X170912315Y-98157626D01*
X170916896Y-98143530D01*
X170956712Y-98074565D01*
X170991348Y-98009767D01*
X171000710Y-97998359D01*
X171011076Y-97980405D01*
X171060416Y-97925607D01*
X171103324Y-97873324D01*
X171119291Y-97860219D01*
X171137113Y-97840427D01*
X171192002Y-97800546D01*
X171239767Y-97761348D01*
X171263180Y-97748833D01*
X171289500Y-97729711D01*
X171346109Y-97704506D01*
X171395433Y-97678143D01*
X171426471Y-97668727D01*
X171461576Y-97653098D01*
X171516430Y-97641438D01*
X171564340Y-97626905D01*
X171602476Y-97623148D01*
X171645820Y-97613936D01*
X171696016Y-97613936D01*
X171739999Y-97609604D01*
X171783983Y-97613936D01*
G37*
G36*
X174323983Y-97613936D02*
G01*
X174374180Y-97613936D01*
X174417524Y-97623149D01*
X174455659Y-97626905D01*
X174503566Y-97641437D01*
X174558424Y-97653098D01*
X174593530Y-97668728D01*
X174624566Y-97678143D01*
X174673884Y-97704504D01*
X174730500Y-97729711D01*
X174756822Y-97748835D01*
X174780232Y-97761348D01*
X174827988Y-97800540D01*
X174882887Y-97840427D01*
X174900711Y-97860223D01*
X174916675Y-97873324D01*
X174959572Y-97925594D01*
X175008924Y-97980405D01*
X175019292Y-97998363D01*
X175028651Y-98009767D01*
X175063273Y-98074542D01*
X175103104Y-98143530D01*
X175107685Y-98157630D01*
X175111856Y-98165433D01*
X175134852Y-98241242D01*
X175161311Y-98322672D01*
X175162242Y-98331532D01*
X175163094Y-98334340D01*
X175171385Y-98418520D01*
X175181000Y-98510000D01*
X175171382Y-98601501D01*
X175163094Y-98685659D01*
X175162242Y-98688466D01*
X175161311Y-98697328D01*
X175134848Y-98778771D01*
X175111856Y-98854566D01*
X175107686Y-98862366D01*
X175103104Y-98876470D01*
X175063266Y-98945470D01*
X175028651Y-99010232D01*
X175019294Y-99021633D01*
X175008924Y-99039595D01*
X174959563Y-99094415D01*
X174916675Y-99146675D01*
X174900714Y-99159773D01*
X174882887Y-99179573D01*
X174827977Y-99219467D01*
X174780232Y-99258651D01*
X174756827Y-99271161D01*
X174730500Y-99290289D01*
X174673873Y-99315500D01*
X174624566Y-99341856D01*
X174593537Y-99351268D01*
X174558424Y-99366902D01*
X174503555Y-99378564D01*
X174455659Y-99393094D01*
X174417533Y-99396849D01*
X174374180Y-99406064D01*
X174323972Y-99406064D01*
X174279999Y-99410395D01*
X174236026Y-99406064D01*
X174185820Y-99406064D01*
X174142467Y-99396849D01*
X174104340Y-99393094D01*
X174056441Y-99378563D01*
X174001576Y-99366902D01*
X173966464Y-99351269D01*
X173935433Y-99341856D01*
X173886120Y-99315498D01*
X173829500Y-99290289D01*
X173803175Y-99271163D01*
X173779767Y-99258651D01*
X173732013Y-99219460D01*
X173677113Y-99179573D01*
X173659287Y-99159776D01*
X173643324Y-99146675D01*
X173600425Y-99094402D01*
X173551076Y-99039595D01*
X173540708Y-99021637D01*
X173531348Y-99010232D01*
X173496719Y-98945447D01*
X173456896Y-98876470D01*
X173452315Y-98862371D01*
X173448143Y-98854566D01*
X173425136Y-98778725D01*
X173398689Y-98697328D01*
X173397758Y-98688471D01*
X173396905Y-98685659D01*
X173388601Y-98601349D01*
X173379000Y-98510000D01*
X173388598Y-98418672D01*
X173396905Y-98334340D01*
X173397758Y-98331527D01*
X173398689Y-98322672D01*
X173425132Y-98241288D01*
X173448143Y-98165433D01*
X173452315Y-98157626D01*
X173456896Y-98143530D01*
X173496712Y-98074565D01*
X173531348Y-98009767D01*
X173540710Y-97998359D01*
X173551076Y-97980405D01*
X173600416Y-97925607D01*
X173643324Y-97873324D01*
X173659291Y-97860219D01*
X173677113Y-97840427D01*
X173732002Y-97800546D01*
X173779767Y-97761348D01*
X173803180Y-97748833D01*
X173829500Y-97729711D01*
X173886109Y-97704506D01*
X173935433Y-97678143D01*
X173966471Y-97668727D01*
X174001576Y-97653098D01*
X174056430Y-97641438D01*
X174104340Y-97626905D01*
X174142476Y-97623148D01*
X174185820Y-97613936D01*
X174236016Y-97613936D01*
X174280000Y-97609604D01*
X174323983Y-97613936D01*
G37*
G36*
X176863983Y-97613936D02*
G01*
X176914180Y-97613936D01*
X176957524Y-97623149D01*
X176995659Y-97626905D01*
X177043566Y-97641437D01*
X177098424Y-97653098D01*
X177133530Y-97668728D01*
X177164566Y-97678143D01*
X177213884Y-97704504D01*
X177270500Y-97729711D01*
X177296822Y-97748835D01*
X177320232Y-97761348D01*
X177367988Y-97800540D01*
X177422887Y-97840427D01*
X177440711Y-97860223D01*
X177456675Y-97873324D01*
X177499572Y-97925594D01*
X177548924Y-97980405D01*
X177559292Y-97998363D01*
X177568651Y-98009767D01*
X177603273Y-98074542D01*
X177643104Y-98143530D01*
X177647685Y-98157630D01*
X177651856Y-98165433D01*
X177674852Y-98241242D01*
X177701311Y-98322672D01*
X177702242Y-98331532D01*
X177703094Y-98334340D01*
X177711385Y-98418520D01*
X177721000Y-98510000D01*
X177711382Y-98601501D01*
X177703094Y-98685659D01*
X177702242Y-98688466D01*
X177701311Y-98697328D01*
X177674848Y-98778771D01*
X177651856Y-98854566D01*
X177647686Y-98862366D01*
X177643104Y-98876470D01*
X177603266Y-98945470D01*
X177568651Y-99010232D01*
X177559294Y-99021633D01*
X177548924Y-99039595D01*
X177499563Y-99094415D01*
X177456675Y-99146675D01*
X177440714Y-99159773D01*
X177422887Y-99179573D01*
X177367977Y-99219467D01*
X177320232Y-99258651D01*
X177296827Y-99271161D01*
X177270500Y-99290289D01*
X177213873Y-99315500D01*
X177164566Y-99341856D01*
X177133537Y-99351268D01*
X177098424Y-99366902D01*
X177043555Y-99378564D01*
X176995659Y-99393094D01*
X176957533Y-99396849D01*
X176914180Y-99406064D01*
X176863972Y-99406064D01*
X176819999Y-99410395D01*
X176776026Y-99406064D01*
X176725820Y-99406064D01*
X176682467Y-99396849D01*
X176644340Y-99393094D01*
X176596441Y-99378563D01*
X176541576Y-99366902D01*
X176506464Y-99351269D01*
X176475433Y-99341856D01*
X176426120Y-99315498D01*
X176369500Y-99290289D01*
X176343175Y-99271163D01*
X176319767Y-99258651D01*
X176272013Y-99219460D01*
X176217113Y-99179573D01*
X176199287Y-99159776D01*
X176183324Y-99146675D01*
X176140425Y-99094402D01*
X176091076Y-99039595D01*
X176080708Y-99021637D01*
X176071348Y-99010232D01*
X176036719Y-98945447D01*
X175996896Y-98876470D01*
X175992315Y-98862371D01*
X175988143Y-98854566D01*
X175965136Y-98778725D01*
X175938689Y-98697328D01*
X175937758Y-98688471D01*
X175936905Y-98685659D01*
X175928601Y-98601349D01*
X175919000Y-98510000D01*
X175928598Y-98418672D01*
X175936905Y-98334340D01*
X175937758Y-98331527D01*
X175938689Y-98322672D01*
X175965132Y-98241288D01*
X175988143Y-98165433D01*
X175992315Y-98157626D01*
X175996896Y-98143530D01*
X176036712Y-98074565D01*
X176071348Y-98009767D01*
X176080710Y-97998359D01*
X176091076Y-97980405D01*
X176140416Y-97925607D01*
X176183324Y-97873324D01*
X176199291Y-97860219D01*
X176217113Y-97840427D01*
X176272002Y-97800546D01*
X176319767Y-97761348D01*
X176343180Y-97748833D01*
X176369500Y-97729711D01*
X176426109Y-97704506D01*
X176475433Y-97678143D01*
X176506471Y-97668727D01*
X176541576Y-97653098D01*
X176596430Y-97641438D01*
X176644340Y-97626905D01*
X176682476Y-97623148D01*
X176725820Y-97613936D01*
X176776016Y-97613936D01*
X176820000Y-97609604D01*
X176863983Y-97613936D01*
G37*
G36*
X179403983Y-97613936D02*
G01*
X179454180Y-97613936D01*
X179497524Y-97623149D01*
X179535659Y-97626905D01*
X179583566Y-97641437D01*
X179638424Y-97653098D01*
X179673530Y-97668728D01*
X179704566Y-97678143D01*
X179753884Y-97704504D01*
X179810500Y-97729711D01*
X179836822Y-97748835D01*
X179860232Y-97761348D01*
X179907988Y-97800540D01*
X179962887Y-97840427D01*
X179980711Y-97860223D01*
X179996675Y-97873324D01*
X180039572Y-97925594D01*
X180088924Y-97980405D01*
X180099292Y-97998363D01*
X180108651Y-98009767D01*
X180143273Y-98074542D01*
X180183104Y-98143530D01*
X180187685Y-98157630D01*
X180191856Y-98165433D01*
X180214852Y-98241242D01*
X180241311Y-98322672D01*
X180242242Y-98331532D01*
X180243094Y-98334340D01*
X180251385Y-98418520D01*
X180261000Y-98510000D01*
X180251382Y-98601501D01*
X180243094Y-98685659D01*
X180242242Y-98688466D01*
X180241311Y-98697328D01*
X180214848Y-98778771D01*
X180191856Y-98854566D01*
X180187686Y-98862366D01*
X180183104Y-98876470D01*
X180143266Y-98945470D01*
X180108651Y-99010232D01*
X180099294Y-99021633D01*
X180088924Y-99039595D01*
X180039563Y-99094415D01*
X179996675Y-99146675D01*
X179980714Y-99159773D01*
X179962887Y-99179573D01*
X179907977Y-99219467D01*
X179860232Y-99258651D01*
X179836827Y-99271161D01*
X179810500Y-99290289D01*
X179753873Y-99315500D01*
X179704566Y-99341856D01*
X179673537Y-99351268D01*
X179638424Y-99366902D01*
X179583555Y-99378564D01*
X179535659Y-99393094D01*
X179497532Y-99396849D01*
X179454180Y-99406064D01*
X179403973Y-99406064D01*
X179360000Y-99410395D01*
X179316027Y-99406064D01*
X179265820Y-99406064D01*
X179222467Y-99396849D01*
X179184340Y-99393094D01*
X179136441Y-99378563D01*
X179081576Y-99366902D01*
X179046464Y-99351269D01*
X179015433Y-99341856D01*
X178966120Y-99315498D01*
X178909500Y-99290289D01*
X178883175Y-99271163D01*
X178859767Y-99258651D01*
X178812013Y-99219460D01*
X178757113Y-99179573D01*
X178739287Y-99159776D01*
X178723324Y-99146675D01*
X178680425Y-99094402D01*
X178631076Y-99039595D01*
X178620708Y-99021637D01*
X178611348Y-99010232D01*
X178576719Y-98945447D01*
X178536896Y-98876470D01*
X178532315Y-98862371D01*
X178528143Y-98854566D01*
X178505136Y-98778725D01*
X178478689Y-98697328D01*
X178477758Y-98688471D01*
X178476905Y-98685659D01*
X178468601Y-98601349D01*
X178459000Y-98510000D01*
X178468598Y-98418672D01*
X178476905Y-98334340D01*
X178477758Y-98331527D01*
X178478689Y-98322672D01*
X178505132Y-98241288D01*
X178528143Y-98165433D01*
X178532315Y-98157626D01*
X178536896Y-98143530D01*
X178576712Y-98074565D01*
X178611348Y-98009767D01*
X178620710Y-97998359D01*
X178631076Y-97980405D01*
X178680416Y-97925607D01*
X178723324Y-97873324D01*
X178739291Y-97860219D01*
X178757113Y-97840427D01*
X178812002Y-97800546D01*
X178859767Y-97761348D01*
X178883180Y-97748833D01*
X178909500Y-97729711D01*
X178966109Y-97704506D01*
X179015433Y-97678143D01*
X179046471Y-97668727D01*
X179081576Y-97653098D01*
X179136430Y-97641438D01*
X179184340Y-97626905D01*
X179222476Y-97623148D01*
X179265820Y-97613936D01*
X179316016Y-97613936D01*
X179360000Y-97609604D01*
X179403983Y-97613936D01*
G37*
G36*
X181943983Y-97613936D02*
G01*
X181994180Y-97613936D01*
X182037524Y-97623149D01*
X182075659Y-97626905D01*
X182123566Y-97641437D01*
X182178424Y-97653098D01*
X182213530Y-97668728D01*
X182244566Y-97678143D01*
X182293884Y-97704504D01*
X182350500Y-97729711D01*
X182376822Y-97748835D01*
X182400232Y-97761348D01*
X182447988Y-97800540D01*
X182502887Y-97840427D01*
X182520711Y-97860223D01*
X182536675Y-97873324D01*
X182579572Y-97925594D01*
X182628924Y-97980405D01*
X182639292Y-97998363D01*
X182648651Y-98009767D01*
X182683273Y-98074542D01*
X182723104Y-98143530D01*
X182727685Y-98157630D01*
X182731856Y-98165433D01*
X182754852Y-98241242D01*
X182781311Y-98322672D01*
X182782242Y-98331532D01*
X182783094Y-98334340D01*
X182791385Y-98418520D01*
X182801000Y-98510000D01*
X182791382Y-98601501D01*
X182783094Y-98685659D01*
X182782242Y-98688466D01*
X182781311Y-98697328D01*
X182754848Y-98778771D01*
X182731856Y-98854566D01*
X182727686Y-98862366D01*
X182723104Y-98876470D01*
X182683266Y-98945470D01*
X182648651Y-99010232D01*
X182639294Y-99021633D01*
X182628924Y-99039595D01*
X182579563Y-99094415D01*
X182536675Y-99146675D01*
X182520714Y-99159773D01*
X182502887Y-99179573D01*
X182447977Y-99219467D01*
X182400232Y-99258651D01*
X182376827Y-99271161D01*
X182350500Y-99290289D01*
X182293873Y-99315500D01*
X182244566Y-99341856D01*
X182213537Y-99351268D01*
X182178424Y-99366902D01*
X182123555Y-99378564D01*
X182075659Y-99393094D01*
X182037533Y-99396849D01*
X181994180Y-99406064D01*
X181943972Y-99406064D01*
X181899999Y-99410395D01*
X181856026Y-99406064D01*
X181805820Y-99406064D01*
X181762467Y-99396849D01*
X181724340Y-99393094D01*
X181676441Y-99378563D01*
X181621576Y-99366902D01*
X181586464Y-99351269D01*
X181555433Y-99341856D01*
X181506120Y-99315498D01*
X181449500Y-99290289D01*
X181423175Y-99271163D01*
X181399767Y-99258651D01*
X181352013Y-99219460D01*
X181297113Y-99179573D01*
X181279287Y-99159776D01*
X181263324Y-99146675D01*
X181220425Y-99094402D01*
X181171076Y-99039595D01*
X181160708Y-99021637D01*
X181151348Y-99010232D01*
X181116719Y-98945447D01*
X181076896Y-98876470D01*
X181072315Y-98862371D01*
X181068143Y-98854566D01*
X181045136Y-98778725D01*
X181018689Y-98697328D01*
X181017758Y-98688471D01*
X181016905Y-98685659D01*
X181008601Y-98601349D01*
X180999000Y-98510000D01*
X181008598Y-98418672D01*
X181016905Y-98334340D01*
X181017758Y-98331527D01*
X181018689Y-98322672D01*
X181045132Y-98241288D01*
X181068143Y-98165433D01*
X181072315Y-98157626D01*
X181076896Y-98143530D01*
X181116712Y-98074565D01*
X181151348Y-98009767D01*
X181160710Y-97998359D01*
X181171076Y-97980405D01*
X181220416Y-97925607D01*
X181263324Y-97873324D01*
X181279291Y-97860219D01*
X181297113Y-97840427D01*
X181352002Y-97800546D01*
X181399767Y-97761348D01*
X181423180Y-97748833D01*
X181449500Y-97729711D01*
X181506109Y-97704506D01*
X181555433Y-97678143D01*
X181586471Y-97668727D01*
X181621576Y-97653098D01*
X181676430Y-97641438D01*
X181724340Y-97626905D01*
X181762476Y-97623148D01*
X181805820Y-97613936D01*
X181856016Y-97613936D01*
X181899999Y-97609604D01*
X181943983Y-97613936D01*
G37*
G36*
X184483983Y-97613936D02*
G01*
X184534180Y-97613936D01*
X184577524Y-97623149D01*
X184615659Y-97626905D01*
X184663566Y-97641437D01*
X184718424Y-97653098D01*
X184753530Y-97668728D01*
X184784566Y-97678143D01*
X184833884Y-97704504D01*
X184890500Y-97729711D01*
X184916822Y-97748835D01*
X184940232Y-97761348D01*
X184987988Y-97800540D01*
X185042887Y-97840427D01*
X185060711Y-97860223D01*
X185076675Y-97873324D01*
X185119572Y-97925594D01*
X185168924Y-97980405D01*
X185179292Y-97998363D01*
X185188651Y-98009767D01*
X185223273Y-98074542D01*
X185263104Y-98143530D01*
X185267685Y-98157630D01*
X185271856Y-98165433D01*
X185294852Y-98241242D01*
X185321311Y-98322672D01*
X185322242Y-98331532D01*
X185323094Y-98334340D01*
X185331385Y-98418520D01*
X185341000Y-98510000D01*
X185331382Y-98601501D01*
X185323094Y-98685659D01*
X185322242Y-98688466D01*
X185321311Y-98697328D01*
X185294848Y-98778771D01*
X185271856Y-98854566D01*
X185267686Y-98862366D01*
X185263104Y-98876470D01*
X185223266Y-98945470D01*
X185188651Y-99010232D01*
X185179294Y-99021633D01*
X185168924Y-99039595D01*
X185119563Y-99094415D01*
X185076675Y-99146675D01*
X185060714Y-99159773D01*
X185042887Y-99179573D01*
X184987977Y-99219467D01*
X184940232Y-99258651D01*
X184916827Y-99271161D01*
X184890500Y-99290289D01*
X184833873Y-99315500D01*
X184784566Y-99341856D01*
X184753537Y-99351268D01*
X184718424Y-99366902D01*
X184663555Y-99378564D01*
X184615659Y-99393094D01*
X184577532Y-99396849D01*
X184534180Y-99406064D01*
X184483973Y-99406064D01*
X184440000Y-99410395D01*
X184396027Y-99406064D01*
X184345820Y-99406064D01*
X184302467Y-99396849D01*
X184264340Y-99393094D01*
X184216441Y-99378563D01*
X184161576Y-99366902D01*
X184126464Y-99351269D01*
X184095433Y-99341856D01*
X184046120Y-99315498D01*
X183989500Y-99290289D01*
X183963175Y-99271163D01*
X183939767Y-99258651D01*
X183892013Y-99219460D01*
X183837113Y-99179573D01*
X183819287Y-99159776D01*
X183803324Y-99146675D01*
X183760425Y-99094402D01*
X183711076Y-99039595D01*
X183700708Y-99021637D01*
X183691348Y-99010232D01*
X183656719Y-98945447D01*
X183616896Y-98876470D01*
X183612315Y-98862371D01*
X183608143Y-98854566D01*
X183585136Y-98778725D01*
X183558689Y-98697328D01*
X183557758Y-98688471D01*
X183556905Y-98685659D01*
X183548601Y-98601349D01*
X183539000Y-98510000D01*
X183548598Y-98418672D01*
X183556905Y-98334340D01*
X183557758Y-98331527D01*
X183558689Y-98322672D01*
X183585132Y-98241288D01*
X183608143Y-98165433D01*
X183612315Y-98157626D01*
X183616896Y-98143530D01*
X183656712Y-98074565D01*
X183691348Y-98009767D01*
X183700710Y-97998359D01*
X183711076Y-97980405D01*
X183760416Y-97925607D01*
X183803324Y-97873324D01*
X183819291Y-97860219D01*
X183837113Y-97840427D01*
X183892002Y-97800546D01*
X183939767Y-97761348D01*
X183963180Y-97748833D01*
X183989500Y-97729711D01*
X184046109Y-97704506D01*
X184095433Y-97678143D01*
X184126471Y-97668727D01*
X184161576Y-97653098D01*
X184216430Y-97641438D01*
X184264340Y-97626905D01*
X184302476Y-97623148D01*
X184345820Y-97613936D01*
X184396016Y-97613936D01*
X184440000Y-97609604D01*
X184483983Y-97613936D01*
G37*
G36*
X187023983Y-97613936D02*
G01*
X187074180Y-97613936D01*
X187117524Y-97623149D01*
X187155659Y-97626905D01*
X187203566Y-97641437D01*
X187258424Y-97653098D01*
X187293530Y-97668728D01*
X187324566Y-97678143D01*
X187373884Y-97704504D01*
X187430500Y-97729711D01*
X187456822Y-97748835D01*
X187480232Y-97761348D01*
X187527988Y-97800540D01*
X187582887Y-97840427D01*
X187600711Y-97860223D01*
X187616675Y-97873324D01*
X187659572Y-97925594D01*
X187708924Y-97980405D01*
X187719292Y-97998363D01*
X187728651Y-98009767D01*
X187763273Y-98074542D01*
X187803104Y-98143530D01*
X187807685Y-98157630D01*
X187811856Y-98165433D01*
X187834852Y-98241242D01*
X187861311Y-98322672D01*
X187862242Y-98331532D01*
X187863094Y-98334340D01*
X187871384Y-98418513D01*
X187881000Y-98510000D01*
X187871383Y-98601494D01*
X187863094Y-98685659D01*
X187862242Y-98688466D01*
X187861311Y-98697328D01*
X187834848Y-98778771D01*
X187811856Y-98854566D01*
X187807686Y-98862366D01*
X187803104Y-98876470D01*
X187763266Y-98945470D01*
X187728651Y-99010232D01*
X187719294Y-99021633D01*
X187708924Y-99039595D01*
X187659563Y-99094415D01*
X187616675Y-99146675D01*
X187600714Y-99159773D01*
X187582887Y-99179573D01*
X187527977Y-99219467D01*
X187480232Y-99258651D01*
X187456827Y-99271161D01*
X187430500Y-99290289D01*
X187373873Y-99315500D01*
X187324566Y-99341856D01*
X187293537Y-99351268D01*
X187258424Y-99366902D01*
X187203555Y-99378564D01*
X187155659Y-99393094D01*
X187117532Y-99396849D01*
X187074180Y-99406064D01*
X187023973Y-99406064D01*
X186980000Y-99410395D01*
X186936027Y-99406064D01*
X186885820Y-99406064D01*
X186842467Y-99396849D01*
X186804340Y-99393094D01*
X186756441Y-99378563D01*
X186701576Y-99366902D01*
X186666464Y-99351269D01*
X186635433Y-99341856D01*
X186586120Y-99315498D01*
X186529500Y-99290289D01*
X186503175Y-99271163D01*
X186479767Y-99258651D01*
X186432013Y-99219460D01*
X186377113Y-99179573D01*
X186359287Y-99159776D01*
X186343324Y-99146675D01*
X186300425Y-99094402D01*
X186251076Y-99039595D01*
X186240708Y-99021637D01*
X186231348Y-99010232D01*
X186196719Y-98945447D01*
X186156896Y-98876470D01*
X186152315Y-98862371D01*
X186148143Y-98854566D01*
X186125136Y-98778725D01*
X186098689Y-98697328D01*
X186097758Y-98688471D01*
X186096905Y-98685659D01*
X186088600Y-98601342D01*
X186079000Y-98510000D01*
X186088599Y-98418664D01*
X186096905Y-98334340D01*
X186097758Y-98331527D01*
X186098689Y-98322672D01*
X186125132Y-98241288D01*
X186148143Y-98165433D01*
X186152315Y-98157626D01*
X186156896Y-98143530D01*
X186196712Y-98074565D01*
X186231348Y-98009767D01*
X186240710Y-97998359D01*
X186251076Y-97980405D01*
X186300416Y-97925607D01*
X186343324Y-97873324D01*
X186359291Y-97860219D01*
X186377113Y-97840427D01*
X186432002Y-97800546D01*
X186479767Y-97761348D01*
X186503180Y-97748833D01*
X186529500Y-97729711D01*
X186586109Y-97704506D01*
X186635433Y-97678143D01*
X186666471Y-97668727D01*
X186701576Y-97653098D01*
X186756430Y-97641438D01*
X186804340Y-97626905D01*
X186842476Y-97623148D01*
X186885820Y-97613936D01*
X186936016Y-97613936D01*
X186980000Y-97609604D01*
X187023983Y-97613936D01*
G37*
G36*
X189563983Y-97613936D02*
G01*
X189614180Y-97613936D01*
X189657524Y-97623149D01*
X189695659Y-97626905D01*
X189743566Y-97641437D01*
X189798424Y-97653098D01*
X189833530Y-97668728D01*
X189864566Y-97678143D01*
X189913884Y-97704504D01*
X189970500Y-97729711D01*
X189996822Y-97748835D01*
X190020232Y-97761348D01*
X190067988Y-97800540D01*
X190122887Y-97840427D01*
X190140711Y-97860223D01*
X190156675Y-97873324D01*
X190199572Y-97925594D01*
X190248924Y-97980405D01*
X190259292Y-97998363D01*
X190268651Y-98009767D01*
X190303273Y-98074542D01*
X190343104Y-98143530D01*
X190347685Y-98157630D01*
X190351856Y-98165433D01*
X190374852Y-98241242D01*
X190401311Y-98322672D01*
X190402242Y-98331532D01*
X190403094Y-98334340D01*
X190411384Y-98418513D01*
X190421000Y-98510000D01*
X190411383Y-98601494D01*
X190403094Y-98685659D01*
X190402242Y-98688466D01*
X190401311Y-98697328D01*
X190374848Y-98778771D01*
X190351856Y-98854566D01*
X190347686Y-98862366D01*
X190343104Y-98876470D01*
X190303266Y-98945470D01*
X190268651Y-99010232D01*
X190259294Y-99021633D01*
X190248924Y-99039595D01*
X190199563Y-99094415D01*
X190156675Y-99146675D01*
X190140714Y-99159773D01*
X190122887Y-99179573D01*
X190067977Y-99219467D01*
X190020232Y-99258651D01*
X189996827Y-99271161D01*
X189970500Y-99290289D01*
X189913873Y-99315500D01*
X189864566Y-99341856D01*
X189833537Y-99351268D01*
X189798424Y-99366902D01*
X189743555Y-99378564D01*
X189695659Y-99393094D01*
X189657532Y-99396849D01*
X189614180Y-99406064D01*
X189563973Y-99406064D01*
X189520000Y-99410395D01*
X189476027Y-99406064D01*
X189425820Y-99406064D01*
X189382467Y-99396849D01*
X189344340Y-99393094D01*
X189296441Y-99378563D01*
X189241576Y-99366902D01*
X189206464Y-99351269D01*
X189175433Y-99341856D01*
X189126120Y-99315498D01*
X189069500Y-99290289D01*
X189043175Y-99271163D01*
X189019767Y-99258651D01*
X188972013Y-99219460D01*
X188917113Y-99179573D01*
X188899287Y-99159776D01*
X188883324Y-99146675D01*
X188840425Y-99094402D01*
X188791076Y-99039595D01*
X188780708Y-99021637D01*
X188771348Y-99010232D01*
X188736719Y-98945447D01*
X188696896Y-98876470D01*
X188692315Y-98862371D01*
X188688143Y-98854566D01*
X188665136Y-98778725D01*
X188638689Y-98697328D01*
X188637758Y-98688471D01*
X188636905Y-98685659D01*
X188628600Y-98601342D01*
X188619000Y-98510000D01*
X188628599Y-98418664D01*
X188636905Y-98334340D01*
X188637758Y-98331527D01*
X188638689Y-98322672D01*
X188665132Y-98241288D01*
X188688143Y-98165433D01*
X188692315Y-98157626D01*
X188696896Y-98143530D01*
X188736712Y-98074565D01*
X188771348Y-98009767D01*
X188780710Y-97998359D01*
X188791076Y-97980405D01*
X188840416Y-97925607D01*
X188883324Y-97873324D01*
X188899291Y-97860219D01*
X188917113Y-97840427D01*
X188972002Y-97800546D01*
X189019767Y-97761348D01*
X189043180Y-97748833D01*
X189069500Y-97729711D01*
X189126109Y-97704506D01*
X189175433Y-97678143D01*
X189206471Y-97668727D01*
X189241576Y-97653098D01*
X189296430Y-97641438D01*
X189344340Y-97626905D01*
X189382476Y-97623148D01*
X189425820Y-97613936D01*
X189476016Y-97613936D01*
X189520000Y-97609604D01*
X189563983Y-97613936D01*
G37*
G36*
X192103983Y-97613936D02*
G01*
X192154180Y-97613936D01*
X192197524Y-97623149D01*
X192235659Y-97626905D01*
X192283566Y-97641437D01*
X192338424Y-97653098D01*
X192373530Y-97668728D01*
X192404566Y-97678143D01*
X192453884Y-97704504D01*
X192510500Y-97729711D01*
X192536822Y-97748835D01*
X192560232Y-97761348D01*
X192607988Y-97800540D01*
X192662887Y-97840427D01*
X192680711Y-97860223D01*
X192696675Y-97873324D01*
X192739572Y-97925594D01*
X192788924Y-97980405D01*
X192799292Y-97998363D01*
X192808651Y-98009767D01*
X192843273Y-98074542D01*
X192883104Y-98143530D01*
X192887685Y-98157630D01*
X192891856Y-98165433D01*
X192914852Y-98241242D01*
X192941311Y-98322672D01*
X192942242Y-98331532D01*
X192943094Y-98334340D01*
X192951384Y-98418513D01*
X192961000Y-98510000D01*
X192951383Y-98601494D01*
X192943094Y-98685659D01*
X192942242Y-98688466D01*
X192941311Y-98697328D01*
X192914848Y-98778771D01*
X192891856Y-98854566D01*
X192887686Y-98862366D01*
X192883104Y-98876470D01*
X192843266Y-98945470D01*
X192808651Y-99010232D01*
X192799294Y-99021633D01*
X192788924Y-99039595D01*
X192739563Y-99094415D01*
X192696675Y-99146675D01*
X192680714Y-99159773D01*
X192662887Y-99179573D01*
X192607977Y-99219467D01*
X192560232Y-99258651D01*
X192536827Y-99271161D01*
X192510500Y-99290289D01*
X192453873Y-99315500D01*
X192404566Y-99341856D01*
X192373537Y-99351268D01*
X192338424Y-99366902D01*
X192283555Y-99378564D01*
X192235659Y-99393094D01*
X192197532Y-99396849D01*
X192154180Y-99406064D01*
X192103973Y-99406064D01*
X192060000Y-99410395D01*
X192016027Y-99406064D01*
X191965820Y-99406064D01*
X191922467Y-99396849D01*
X191884340Y-99393094D01*
X191836441Y-99378563D01*
X191781576Y-99366902D01*
X191746464Y-99351269D01*
X191715433Y-99341856D01*
X191666120Y-99315498D01*
X191609500Y-99290289D01*
X191583175Y-99271163D01*
X191559767Y-99258651D01*
X191512013Y-99219460D01*
X191457113Y-99179573D01*
X191439287Y-99159776D01*
X191423324Y-99146675D01*
X191380425Y-99094402D01*
X191331076Y-99039595D01*
X191320708Y-99021637D01*
X191311348Y-99010232D01*
X191276719Y-98945447D01*
X191236896Y-98876470D01*
X191232315Y-98862371D01*
X191228143Y-98854566D01*
X191205136Y-98778725D01*
X191178689Y-98697328D01*
X191177758Y-98688471D01*
X191176905Y-98685659D01*
X191168600Y-98601342D01*
X191159000Y-98510000D01*
X191168599Y-98418664D01*
X191176905Y-98334340D01*
X191177758Y-98331527D01*
X191178689Y-98322672D01*
X191205132Y-98241288D01*
X191228143Y-98165433D01*
X191232315Y-98157626D01*
X191236896Y-98143530D01*
X191276712Y-98074565D01*
X191311348Y-98009767D01*
X191320710Y-97998359D01*
X191331076Y-97980405D01*
X191380416Y-97925607D01*
X191423324Y-97873324D01*
X191439291Y-97860219D01*
X191457113Y-97840427D01*
X191512002Y-97800546D01*
X191559767Y-97761348D01*
X191583180Y-97748833D01*
X191609500Y-97729711D01*
X191666109Y-97704506D01*
X191715433Y-97678143D01*
X191746471Y-97668727D01*
X191781576Y-97653098D01*
X191836430Y-97641438D01*
X191884340Y-97626905D01*
X191922476Y-97623148D01*
X191965820Y-97613936D01*
X192016016Y-97613936D01*
X192060000Y-97609604D01*
X192103983Y-97613936D01*
G37*
G36*
X194643983Y-97613936D02*
G01*
X194694180Y-97613936D01*
X194737524Y-97623149D01*
X194775659Y-97626905D01*
X194823566Y-97641437D01*
X194878424Y-97653098D01*
X194913530Y-97668728D01*
X194944566Y-97678143D01*
X194993884Y-97704504D01*
X195050500Y-97729711D01*
X195076822Y-97748835D01*
X195100232Y-97761348D01*
X195147988Y-97800540D01*
X195202887Y-97840427D01*
X195220711Y-97860223D01*
X195236675Y-97873324D01*
X195279572Y-97925594D01*
X195328924Y-97980405D01*
X195339292Y-97998363D01*
X195348651Y-98009767D01*
X195383273Y-98074542D01*
X195423104Y-98143530D01*
X195427685Y-98157630D01*
X195431856Y-98165433D01*
X195454852Y-98241242D01*
X195481311Y-98322672D01*
X195482242Y-98331532D01*
X195483094Y-98334340D01*
X195491385Y-98418520D01*
X195501000Y-98510000D01*
X195491382Y-98601501D01*
X195483094Y-98685659D01*
X195482242Y-98688466D01*
X195481311Y-98697328D01*
X195454848Y-98778771D01*
X195431856Y-98854566D01*
X195427686Y-98862366D01*
X195423104Y-98876470D01*
X195383266Y-98945470D01*
X195348651Y-99010232D01*
X195339294Y-99021633D01*
X195328924Y-99039595D01*
X195279563Y-99094415D01*
X195236675Y-99146675D01*
X195220714Y-99159773D01*
X195202887Y-99179573D01*
X195147977Y-99219467D01*
X195100232Y-99258651D01*
X195076827Y-99271161D01*
X195050500Y-99290289D01*
X194993873Y-99315500D01*
X194944566Y-99341856D01*
X194913537Y-99351268D01*
X194878424Y-99366902D01*
X194823555Y-99378564D01*
X194775659Y-99393094D01*
X194737533Y-99396849D01*
X194694180Y-99406064D01*
X194643972Y-99406064D01*
X194599999Y-99410395D01*
X194556026Y-99406064D01*
X194505820Y-99406064D01*
X194462467Y-99396849D01*
X194424340Y-99393094D01*
X194376441Y-99378563D01*
X194321576Y-99366902D01*
X194286464Y-99351269D01*
X194255433Y-99341856D01*
X194206120Y-99315498D01*
X194149500Y-99290289D01*
X194123175Y-99271163D01*
X194099767Y-99258651D01*
X194052013Y-99219460D01*
X193997113Y-99179573D01*
X193979287Y-99159776D01*
X193963324Y-99146675D01*
X193920425Y-99094402D01*
X193871076Y-99039595D01*
X193860708Y-99021637D01*
X193851348Y-99010232D01*
X193816719Y-98945447D01*
X193776896Y-98876470D01*
X193772315Y-98862371D01*
X193768143Y-98854566D01*
X193745136Y-98778725D01*
X193718689Y-98697328D01*
X193717758Y-98688471D01*
X193716905Y-98685659D01*
X193708601Y-98601349D01*
X193699000Y-98510000D01*
X193708598Y-98418672D01*
X193716905Y-98334340D01*
X193717758Y-98331527D01*
X193718689Y-98322672D01*
X193745132Y-98241288D01*
X193768143Y-98165433D01*
X193772315Y-98157626D01*
X193776896Y-98143530D01*
X193816712Y-98074565D01*
X193851348Y-98009767D01*
X193860710Y-97998359D01*
X193871076Y-97980405D01*
X193920416Y-97925607D01*
X193963324Y-97873324D01*
X193979291Y-97860219D01*
X193997113Y-97840427D01*
X194052002Y-97800546D01*
X194099767Y-97761348D01*
X194123180Y-97748833D01*
X194149500Y-97729711D01*
X194206109Y-97704506D01*
X194255433Y-97678143D01*
X194286471Y-97668727D01*
X194321576Y-97653098D01*
X194376430Y-97641438D01*
X194424340Y-97626905D01*
X194462476Y-97623148D01*
X194505820Y-97613936D01*
X194556016Y-97613936D01*
X194599999Y-97609604D01*
X194643983Y-97613936D01*
G37*
G36*
X204947633Y-73547797D02*
G01*
X204948573Y-73547912D01*
X204951061Y-73549217D01*
X204979855Y-73561145D01*
X204985714Y-73575290D01*
X204987400Y-73577193D01*
X204987772Y-73580259D01*
X204994500Y-73596500D01*
X204994500Y-82867500D01*
X204993199Y-82870639D01*
X204993156Y-82870997D01*
X204993155Y-82871005D01*
X204993085Y-82871576D01*
X204991787Y-82874049D01*
X204979855Y-82902855D01*
X204965706Y-82908715D01*
X204963805Y-82910400D01*
X204960741Y-82910772D01*
X204944500Y-82917500D01*
X204929323Y-82917500D01*
X202947723Y-82917500D01*
X202874500Y-82990722D01*
X202874500Y-85941800D01*
X202870618Y-85961317D01*
X202859562Y-85977862D01*
X202843017Y-85988918D01*
X202823500Y-85992800D01*
X201223500Y-85992800D01*
X201203983Y-85988918D01*
X201187438Y-85977862D01*
X201176382Y-85961317D01*
X201172500Y-85941800D01*
X201172500Y-82990722D01*
X201099278Y-82917500D01*
X200448223Y-82917500D01*
X200375000Y-82990723D01*
X200375000Y-85954500D01*
X200371118Y-85974017D01*
X200360062Y-85990562D01*
X200343517Y-86001618D01*
X200324000Y-86005500D01*
X199024000Y-86005500D01*
X199004483Y-86001618D01*
X198987938Y-85990562D01*
X198976882Y-85974017D01*
X198973000Y-85954500D01*
X198972999Y-82990721D01*
X198899778Y-82917500D01*
X197463723Y-82917500D01*
X197390500Y-82990723D01*
X197390500Y-85941800D01*
X197386618Y-85961317D01*
X197375562Y-85977862D01*
X197359017Y-85988918D01*
X197339500Y-85992800D01*
X196039500Y-85992800D01*
X196019983Y-85988918D01*
X196003438Y-85977862D01*
X195992382Y-85961317D01*
X195988500Y-85941800D01*
X195988500Y-82990722D01*
X195915278Y-82917500D01*
X195327723Y-82917500D01*
X195254500Y-82990722D01*
X195254500Y-85941800D01*
X195250618Y-85961317D01*
X195239562Y-85977862D01*
X195223017Y-85988918D01*
X195203500Y-85992800D01*
X193603500Y-85992800D01*
X193583983Y-85988918D01*
X193567438Y-85977862D01*
X193556382Y-85961317D01*
X193552500Y-85941800D01*
X193552500Y-82990722D01*
X193479278Y-82917500D01*
X192787723Y-82917500D01*
X192714500Y-82990723D01*
X192714500Y-85941800D01*
X192710618Y-85961317D01*
X192699562Y-85977862D01*
X192683017Y-85988918D01*
X192663500Y-85992800D01*
X191063500Y-85992800D01*
X191043983Y-85988918D01*
X191027438Y-85977862D01*
X191016382Y-85961317D01*
X191012500Y-85941800D01*
X191012500Y-82990721D01*
X190939278Y-82917500D01*
X190247723Y-82917500D01*
X190174500Y-82990723D01*
X190174500Y-85941800D01*
X190170618Y-85961317D01*
X190159562Y-85977862D01*
X190143017Y-85988918D01*
X190123500Y-85992800D01*
X188523500Y-85992800D01*
X188503983Y-85988918D01*
X188487438Y-85977862D01*
X188476382Y-85961317D01*
X188472500Y-85941800D01*
X188472500Y-82990722D01*
X188399278Y-82917500D01*
X187707723Y-82917500D01*
X187634500Y-82990722D01*
X187634500Y-85941800D01*
X187630618Y-85961317D01*
X187619562Y-85977862D01*
X187603017Y-85988918D01*
X187583500Y-85992800D01*
X185983500Y-85992800D01*
X185963983Y-85988918D01*
X185947438Y-85977862D01*
X185936382Y-85961317D01*
X185932500Y-85941800D01*
X185932500Y-82990722D01*
X185859278Y-82917500D01*
X185167723Y-82917500D01*
X185094500Y-82990723D01*
X185094500Y-85941800D01*
X185090618Y-85961317D01*
X185079562Y-85977862D01*
X185063017Y-85988918D01*
X185043500Y-85992800D01*
X183443500Y-85992800D01*
X183423983Y-85988918D01*
X183407438Y-85977862D01*
X183396382Y-85961317D01*
X183392500Y-85941800D01*
X183392500Y-82990721D01*
X183319278Y-82917500D01*
X182627723Y-82917500D01*
X182554500Y-82990723D01*
X182554500Y-85941800D01*
X182550618Y-85961317D01*
X182539562Y-85977862D01*
X182523017Y-85988918D01*
X182503500Y-85992800D01*
X180903500Y-85992800D01*
X180883983Y-85988918D01*
X180867438Y-85977862D01*
X180856382Y-85961317D01*
X180852500Y-85941800D01*
X180852500Y-82990722D01*
X180779278Y-82917500D01*
X180087723Y-82917500D01*
X180014500Y-82990722D01*
X180014500Y-85941800D01*
X180010618Y-85961317D01*
X179999562Y-85977862D01*
X179983017Y-85988918D01*
X179963500Y-85992800D01*
X178363500Y-85992800D01*
X178343983Y-85988918D01*
X178327438Y-85977862D01*
X178316382Y-85961317D01*
X178312500Y-85941800D01*
X178312500Y-82990722D01*
X178239278Y-82917500D01*
X177547723Y-82917500D01*
X177474500Y-82990723D01*
X177474500Y-85941800D01*
X177470618Y-85961317D01*
X177459562Y-85977862D01*
X177443017Y-85988918D01*
X177423500Y-85992800D01*
X175823500Y-85992800D01*
X175803983Y-85988918D01*
X175787438Y-85977862D01*
X175776382Y-85961317D01*
X175772500Y-85941800D01*
X175772500Y-82990722D01*
X175699278Y-82917500D01*
X175007723Y-82917500D01*
X174934500Y-82990723D01*
X174934500Y-85941800D01*
X174930618Y-85961317D01*
X174919562Y-85977862D01*
X174903017Y-85988918D01*
X174883500Y-85992800D01*
X173283500Y-85992800D01*
X173263983Y-85988918D01*
X173247438Y-85977862D01*
X173236382Y-85961317D01*
X173232500Y-85941800D01*
X173232500Y-82990722D01*
X173159278Y-82917500D01*
X172467723Y-82917500D01*
X172394500Y-82990722D01*
X172394500Y-85941800D01*
X172390618Y-85961317D01*
X172379562Y-85977862D01*
X172363017Y-85988918D01*
X172343500Y-85992800D01*
X170743500Y-85992800D01*
X170723983Y-85988918D01*
X170707438Y-85977862D01*
X170696382Y-85961317D01*
X170692500Y-85941800D01*
X170692500Y-82990722D01*
X170619278Y-82917500D01*
X169927723Y-82917500D01*
X169854500Y-82990723D01*
X169854500Y-85941800D01*
X169850618Y-85961317D01*
X169839562Y-85977862D01*
X169823017Y-85988918D01*
X169803500Y-85992800D01*
X168203500Y-85992800D01*
X168183983Y-85988918D01*
X168167438Y-85977862D01*
X168156382Y-85961317D01*
X168152500Y-85941800D01*
X168152500Y-82990721D01*
X168079278Y-82917500D01*
X167387723Y-82917500D01*
X167314500Y-82990723D01*
X167314500Y-85941800D01*
X167310618Y-85961317D01*
X167299562Y-85977862D01*
X167283017Y-85988918D01*
X167263500Y-85992800D01*
X165663500Y-85992800D01*
X165643983Y-85988918D01*
X165627438Y-85977862D01*
X165616382Y-85961317D01*
X165612500Y-85941800D01*
X165612500Y-82990722D01*
X165539278Y-82917500D01*
X164847723Y-82917500D01*
X164774500Y-82990722D01*
X164774500Y-85941800D01*
X164770618Y-85961317D01*
X164759562Y-85977862D01*
X164743017Y-85988918D01*
X164723500Y-85992800D01*
X163123500Y-85992800D01*
X163103983Y-85988918D01*
X163087438Y-85977862D01*
X163076382Y-85961317D01*
X163072500Y-85941800D01*
X163072500Y-82990722D01*
X162999278Y-82917500D01*
X162307723Y-82917500D01*
X162234500Y-82990722D01*
X162234500Y-85941800D01*
X162230618Y-85961317D01*
X162219562Y-85977862D01*
X162203017Y-85988918D01*
X162183500Y-85992800D01*
X160583500Y-85992800D01*
X160563983Y-85988918D01*
X160547438Y-85977862D01*
X160536382Y-85961317D01*
X160532500Y-85941800D01*
X160532500Y-82990722D01*
X160459278Y-82917500D01*
X158406559Y-82917500D01*
X158399000Y-82917500D01*
X158395864Y-82916201D01*
X158395501Y-82916157D01*
X158395493Y-82916155D01*
X158394923Y-82916085D01*
X158392446Y-82914785D01*
X158363645Y-82902855D01*
X158357785Y-82888710D01*
X158356098Y-82886805D01*
X158355725Y-82883736D01*
X158349000Y-82867500D01*
X158349000Y-73596500D01*
X158350297Y-73593367D01*
X158350412Y-73592425D01*
X158351721Y-73589930D01*
X158363645Y-73561145D01*
X158377784Y-73555287D01*
X158379692Y-73553598D01*
X158382764Y-73553225D01*
X158399000Y-73546500D01*
X204944500Y-73546500D01*
X204947633Y-73547797D01*
G37*
M02*
